<svg id="svg" version="1.1" xmlns="http://www.w3.org/2000/svg" xmlns:xlink="http://www.w3.org/1999/xlink" width="400" height="400" viewBox="0, 0, 400,400"><g id="svgg"><path id="path0" d="M334.300 144.557 C 333.915 144.849,333.600 145.479,333.600 145.957 C 333.600 146.435,333.330 147.472,333.000 148.262 C 332.670 149.051,332.400 150.205,332.400 150.825 C 332.400 151.445,332.237 152.054,332.037 152.177 C 331.838 152.300,331.558 153.346,331.415 154.500 C 331.272 155.655,330.998 156.960,330.805 157.400 C 330.612 157.840,330.342 159.051,330.204 160.091 C 330.067 161.131,329.784 162.086,329.577 162.214 C 329.370 162.342,329.200 162.942,329.200 163.547 C 329.200 164.152,328.936 164.996,328.613 165.424 C 328.290 165.851,328.020 166.565,328.013 167.011 C 328.006 167.457,327.755 168.177,327.455 168.611 C 327.155 169.045,326.806 169.940,326.679 170.600 C 326.552 171.260,326.325 172.305,326.173 172.923 C 325.962 173.784,326.096 174.230,326.749 174.838 C 327.217 175.274,327.600 175.815,327.600 176.039 C 327.600 176.264,327.825 176.333,328.100 176.194 C 328.375 176.055,328.285 176.199,327.900 176.514 C 327.437 176.894,327.200 177.653,327.200 178.757 C 327.200 179.755,326.992 180.505,326.681 180.624 C 326.395 180.734,326.117 181.493,326.062 182.311 C 326.007 183.129,325.790 183.970,325.581 184.179 C 325.371 184.389,325.200 185.154,325.200 185.880 C 325.200 186.787,325.012 187.200,324.600 187.200 C 324.179 187.200,324.000 187.625,324.000 188.629 C 324.000 189.414,323.730 190.327,323.400 190.657 C 323.029 191.028,322.800 192.010,322.800 193.229 C 322.800 194.741,322.656 195.200,322.181 195.200 C 321.675 195.200,321.584 195.659,321.681 197.700 L 321.800 200.200 325.062 200.234 C 327.717 200.262,328.284 200.163,328.108 199.703 C 327.928 199.236,328.568 199.158,331.818 199.253 C 334.618 199.334,335.791 199.228,335.906 198.883 C 336.016 198.551,337.247 198.400,339.846 198.400 C 342.836 198.400,343.673 198.275,343.855 197.800 C 344.027 197.353,344.740 197.200,346.655 197.200 C 348.571 197.200,349.284 197.047,349.455 196.600 C 349.621 196.169,350.294 196.000,351.843 196.000 C 353.494 196.000,354.000 195.859,354.000 195.400 C 354.000 195.070,354.353 194.800,354.785 194.800 C 355.603 194.800,359.475 191.312,359.300 190.732 C 359.245 190.550,359.470 190.400,359.800 190.400 C 360.158 190.400,360.400 190.032,360.400 189.489 C 360.400 188.988,360.678 188.182,361.017 187.697 C 361.804 186.573,361.703 180.539,360.900 180.700 C 360.589 180.762,360.400 180.347,360.400 179.600 C 360.400 178.779,360.203 178.400,359.775 178.400 C 359.419 178.400,359.180 178.098,359.221 177.700 C 359.348 176.448,359.208 175.948,358.800 176.200 C 358.580 176.336,358.400 176.167,358.400 175.824 C 358.400 175.481,358.130 175.200,357.800 175.200 C 357.425 175.200,357.200 174.821,357.200 174.187 C 357.200 173.631,356.930 173.071,356.600 172.945 C 356.270 172.818,356.000 172.464,356.000 172.157 C 356.000 171.851,355.807 171.600,355.571 171.600 C 354.892 171.600,354.000 170.527,354.000 169.710 C 354.000 169.299,353.468 168.521,352.817 167.981 C 352.166 167.442,351.626 166.595,351.617 166.100 C 351.607 165.574,351.351 165.200,351.000 165.200 C 350.670 165.200,350.400 164.996,350.400 164.746 C 350.400 164.496,349.950 163.875,349.400 163.365 C 348.850 162.855,348.394 162.205,348.387 161.919 C 348.369 161.237,346.992 159.600,346.436 159.600 C 346.196 159.600,346.000 159.330,346.000 159.000 C 346.000 158.670,345.730 158.400,345.400 158.400 C 345.025 158.400,344.800 158.021,344.800 157.387 C 344.800 156.831,344.531 156.272,344.202 156.146 C 343.874 156.019,343.704 155.755,343.826 155.558 C 343.948 155.361,343.857 155.200,343.624 155.200 C 342.905 155.200,341.600 153.644,341.600 152.787 C 341.600 152.341,341.330 151.871,341.000 151.745 C 340.670 151.618,340.400 151.234,340.400 150.891 C 340.400 150.547,340.295 150.372,340.167 150.500 C 340.038 150.628,339.588 150.388,339.167 149.967 C 338.349 149.149,338.137 148.590,338.800 149.000 C 339.621 149.507,339.158 148.696,337.926 147.469 C 337.225 146.771,336.505 146.245,336.326 146.300 C 336.147 146.355,336.000 145.860,336.000 145.200 C 336.000 143.903,335.440 143.691,334.300 144.557 M325.280 177.280 C 324.561 177.999,324.656 179.630,325.400 179.345 C 326.096 179.078,326.217 178.000,325.551 178.000 C 325.241 178.000,325.256 177.815,325.600 177.400 C 326.194 176.684,325.962 176.598,325.280 177.280 M246.400 199.000 C 246.400 199.330,246.580 199.600,246.800 199.600 C 247.020 199.600,247.200 199.330,247.200 199.000 C 247.200 198.670,247.020 198.400,246.800 198.400 C 246.580 198.400,246.400 198.670,246.400 199.000 M304.000 231.662 C 303.010 231.861,301.068 232.192,299.684 232.398 C 298.300 232.604,297.009 232.871,296.816 232.990 C 296.623 233.110,291.725 233.281,285.932 233.370 C 273.878 233.557,272.471 233.833,274.600 235.600 C 275.285 236.169,275.525 252.248,274.842 251.826 C 274.131 251.386,274.039 252.973,274.011 266.228 C 273.985 278.130,274.052 279.665,274.591 279.459 C 275.052 279.282,275.200 279.513,275.200 280.413 C 275.200 281.066,275.380 281.600,275.600 281.600 C 275.820 281.600,276.000 282.056,276.000 282.613 C 276.000 283.169,276.270 283.729,276.600 283.855 C 276.991 284.005,277.200 284.628,277.200 285.643 C 277.200 286.760,277.369 287.200,277.800 287.200 C 278.233 287.200,278.400 287.644,278.400 288.800 C 278.400 289.956,278.567 290.400,279.000 290.400 C 279.400 290.400,279.600 290.800,279.600 291.600 C 279.600 292.400,279.800 292.800,280.200 292.800 C 280.573 292.800,280.800 293.178,280.800 293.800 C 280.800 294.350,280.980 294.800,281.200 294.800 C 281.420 294.800,281.600 295.371,281.600 296.069 C 281.600 296.766,281.862 297.626,282.181 297.980 C 282.501 298.333,282.808 299.292,282.863 300.111 C 282.924 301.012,283.168 301.600,283.482 301.600 C 283.791 301.600,284.000 302.084,284.000 302.800 C 284.000 303.600,284.200 304.000,284.600 304.000 C 284.968 304.000,285.200 304.374,285.200 304.967 C 285.200 305.498,285.372 305.993,285.582 306.067 C 285.793 306.140,286.009 306.870,286.063 307.688 C 286.118 308.507,286.395 309.266,286.681 309.376 C 286.966 309.485,287.200 310.099,287.200 310.738 C 287.200 311.378,287.470 312.126,287.800 312.400 C 288.130 312.674,288.400 313.326,288.400 313.849 C 288.400 314.428,288.635 314.800,289.000 314.800 C 289.400 314.800,289.600 315.200,289.600 316.000 C 289.600 316.835,289.795 317.200,290.242 317.200 C 290.750 317.200,290.852 317.535,290.731 318.800 C 290.626 319.911,290.735 320.400,291.089 320.400 C 291.377 320.400,291.606 320.881,291.613 321.500 C 291.620 322.105,291.890 322.949,292.213 323.376 C 292.536 323.804,292.800 324.569,292.800 325.076 C 292.800 325.631,293.040 326.000,293.400 326.000 C 293.800 326.000,294.000 326.400,294.000 327.200 C 294.000 328.000,294.200 328.400,294.600 328.400 C 295.035 328.400,295.200 328.847,295.200 330.024 C 295.200 331.004,295.358 331.549,295.600 331.400 C 295.834 331.256,296.000 331.667,296.000 332.389 C 296.000 333.119,296.246 333.719,296.600 333.855 C 296.930 333.982,297.200 334.516,297.200 335.043 C 297.200 335.595,297.411 335.958,297.700 335.900 C 298.019 335.836,298.272 336.452,298.400 337.600 C 298.528 338.748,298.781 339.364,299.100 339.300 C 299.411 339.238,299.600 339.653,299.600 340.400 C 299.600 341.093,299.811 341.600,300.100 341.601 C 300.392 341.601,300.645 342.226,300.707 343.101 C 300.766 343.925,300.991 344.660,301.207 344.733 C 301.423 344.807,301.600 345.122,301.600 345.433 C 301.600 345.745,301.878 346.000,302.218 346.000 C 302.557 346.000,302.806 346.225,302.770 346.500 C 302.613 347.706,302.843 348.400,303.400 348.400 C 303.730 348.400,304.000 348.666,304.000 348.990 C 304.000 349.432,304.301 349.520,305.200 349.340 C 305.959 349.188,306.400 349.264,306.400 349.545 C 306.400 350.441,307.804 351.600,308.889 351.600 C 309.635 351.600,310.000 351.808,310.000 352.233 C 310.000 352.761,310.457 352.845,312.772 352.738 C 314.297 352.668,315.631 352.699,315.737 352.806 C 316.310 353.384,321.943 352.718,321.706 352.100 C 321.523 351.622,321.632 351.527,322.140 351.721 C 322.557 351.882,323.123 351.677,323.609 351.191 C 324.044 350.756,324.670 350.400,325.000 350.400 C 325.870 350.400,330.400 345.738,330.400 344.843 C 330.400 344.426,330.670 343.982,331.000 343.855 C 331.411 343.698,331.600 343.055,331.600 341.813 C 331.600 340.468,331.755 340.000,332.200 340.000 C 332.689 340.000,332.800 339.333,332.800 336.400 C 332.800 333.467,332.689 332.800,332.200 332.800 C 331.679 332.800,331.292 330.351,331.553 328.700 C 331.579 328.535,331.375 328.445,331.100 328.500 C 330.801 328.560,330.550 328.078,330.475 327.300 C 330.393 326.448,330.136 326.000,329.731 326.000 C 329.272 326.000,329.178 325.743,329.364 325.000 C 329.575 324.159,329.474 324.000,328.731 324.000 C 327.865 324.000,327.863 323.987,328.624 323.370 C 329.051 323.024,329.175 322.855,328.900 322.994 C 328.568 323.162,328.400 322.921,328.400 322.273 C 328.400 321.737,328.130 321.074,327.800 320.800 C 327.470 320.526,327.200 319.958,327.200 319.538 C 327.200 319.119,326.930 318.671,326.600 318.545 C 326.209 318.395,326.000 317.772,326.000 316.757 C 326.000 315.640,325.831 315.200,325.400 315.200 C 325.041 315.200,324.800 314.831,324.800 314.280 C 324.800 313.774,324.616 313.176,324.390 312.950 C 324.165 312.725,323.956 311.871,323.925 311.053 C 323.885 309.990,323.716 309.623,323.335 309.770 C 322.962 309.913,322.800 309.612,322.800 308.775 C 322.800 308.077,322.549 307.479,322.200 307.345 C 321.809 307.195,321.600 306.572,321.600 305.557 C 321.600 304.440,321.431 304.000,321.000 304.000 C 320.630 304.000,320.400 303.624,320.400 303.020 C 320.400 302.481,320.106 301.875,319.747 301.674 C 319.280 301.413,319.148 300.939,319.283 300.017 C 319.408 299.164,319.291 298.656,318.936 298.520 C 318.641 298.407,318.400 297.903,318.400 297.400 C 318.400 296.897,318.130 296.382,317.800 296.255 C 317.422 296.110,317.200 295.498,317.200 294.600 C 317.200 293.702,316.978 293.090,316.600 292.945 C 316.209 292.795,316.000 292.172,316.000 291.157 C 316.000 290.040,315.831 289.600,315.400 289.600 C 314.997 289.600,314.800 289.197,314.800 288.376 C 314.800 287.663,314.633 287.256,314.400 287.400 C 314.060 287.610,313.796 286.491,313.953 285.500 C 313.979 285.335,313.730 285.200,313.400 285.200 C 312.983 285.200,312.800 284.781,312.800 283.829 C 312.800 283.074,312.530 282.187,312.200 281.857 C 311.870 281.527,311.600 280.884,311.600 280.429 C 311.600 279.959,311.340 279.600,311.000 279.600 C 310.585 279.600,310.400 279.183,310.400 278.249 C 310.400 277.506,310.118 276.664,309.774 276.379 C 309.377 276.049,309.234 275.520,309.382 274.930 C 309.549 274.262,309.444 274.000,309.008 274.000 C 308.584 274.000,308.400 273.591,308.400 272.649 C 308.400 271.906,308.130 271.074,307.800 270.800 C 307.334 270.413,307.200 269.331,307.200 265.951 C 307.200 262.350,307.303 261.600,307.800 261.600 C 308.321 261.600,308.400 259.930,308.400 248.971 C 308.400 238.003,308.483 236.260,309.031 235.712 C 309.403 235.340,309.569 234.736,309.437 234.240 C 309.312 233.778,309.208 232.905,309.205 232.300 C 309.199 231.066,307.810 230.896,304.000 231.662 M225.272 318.200 C 225.300 322.490,225.457 326.000,225.621 326.000 C 225.784 326.000,225.940 322.490,225.966 318.200 C 225.996 313.282,225.867 310.400,225.617 310.400 C 225.367 310.400,225.240 313.279,225.272 318.200 " stroke="none" fill="#a4a4a4" fill-rule="evenodd"></path><path id="path1" d="M310.633 76.658 C 310.488 77.037,309.641 77.200,307.813 77.200 C 305.757 77.200,305.200 77.328,305.200 77.800 C 305.200 78.234,304.754 78.400,303.587 78.400 C 302.523 78.400,301.897 78.604,301.745 79.000 C 301.618 79.330,301.084 79.600,300.557 79.600 C 299.973 79.600,299.600 79.834,299.600 80.200 C 299.600 80.530,299.330 80.800,299.000 80.800 C 298.670 80.800,298.400 80.980,298.400 81.200 C 298.400 81.420,298.130 81.600,297.800 81.600 C 297.470 81.600,297.200 81.870,297.200 82.200 C 297.200 82.573,296.822 82.800,296.200 82.800 C 295.578 82.800,295.200 83.027,295.200 83.400 C 295.200 83.730,294.930 84.000,294.600 84.000 C 294.270 84.000,294.000 84.270,294.000 84.600 C 294.000 84.930,293.730 85.200,293.400 85.200 C 293.027 85.200,292.800 85.578,292.800 86.200 C 292.800 86.822,292.573 87.200,292.200 87.200 C 291.870 87.200,291.600 87.470,291.600 87.800 C 291.600 88.130,291.420 88.400,291.200 88.400 C 290.980 88.400,290.800 88.813,290.800 89.319 C 290.800 89.849,290.300 90.653,289.617 91.219 C 288.966 91.758,288.426 92.605,288.417 93.100 C 288.407 93.626,288.151 94.000,287.800 94.000 C 287.434 94.000,287.200 94.373,287.200 94.957 C 287.200 95.484,286.930 96.018,286.600 96.145 C 286.204 96.297,286.000 96.923,286.000 97.987 C 286.000 98.927,285.810 99.600,285.544 99.600 C 285.230 99.600,285.156 100.344,285.307 102.000 C 285.503 104.170,285.451 104.400,284.762 104.400 C 283.693 104.400,283.609 108.666,284.674 108.871 C 285.234 108.979,285.330 109.426,285.244 111.524 C 285.188 112.912,285.334 114.280,285.570 114.564 C 285.806 114.848,286.039 115.558,286.087 116.140 C 286.135 116.723,286.405 117.200,286.687 117.200 C 286.969 117.200,287.200 117.470,287.200 117.800 C 287.200 118.231,287.640 118.400,288.757 118.400 C 289.772 118.400,290.395 118.609,290.545 119.000 C 290.697 119.396,291.323 119.600,292.387 119.600 C 293.274 119.600,294.000 119.780,294.000 120.000 C 294.000 120.220,294.701 120.400,295.557 120.400 C 296.572 120.400,297.195 120.609,297.345 121.000 C 297.487 121.372,298.096 121.600,298.945 121.600 C 299.793 121.600,300.402 121.828,300.545 122.200 C 300.711 122.633,301.390 122.800,302.987 122.800 C 304.532 122.800,305.200 122.956,305.200 123.318 C 305.200 123.632,305.788 123.876,306.688 123.937 C 307.506 123.992,308.273 124.195,308.393 124.389 C 308.513 124.582,309.328 124.799,310.205 124.870 C 311.217 124.953,311.763 125.183,311.700 125.500 C 311.632 125.841,312.173 126.000,313.400 126.000 C 314.733 126.000,315.200 126.156,315.200 126.600 C 315.200 127.033,315.644 127.200,316.800 127.200 C 317.859 127.200,318.400 127.379,318.400 127.729 C 318.400 128.087,319.074 128.288,320.498 128.353 C 321.825 128.413,322.714 128.660,322.918 129.024 C 323.095 129.341,323.681 129.600,324.220 129.600 C 324.759 129.600,325.200 129.780,325.200 130.000 C 325.200 130.220,325.920 130.400,326.800 130.400 C 327.680 130.400,328.400 130.220,328.400 130.000 C 328.400 129.780,328.664 129.600,328.986 129.600 C 329.309 129.600,330.125 129.060,330.800 128.400 C 331.475 127.740,332.201 127.200,332.414 127.200 C 332.626 127.200,332.800 126.930,332.800 126.600 C 332.800 126.270,333.070 126.000,333.400 126.000 C 333.730 126.000,334.000 125.807,334.000 125.571 C 334.000 125.018,335.018 124.000,335.571 124.000 C 335.807 124.000,336.000 123.730,336.000 123.400 C 336.000 123.070,336.270 122.800,336.600 122.800 C 337.000 122.800,337.200 122.400,337.200 121.600 C 337.200 120.940,337.388 120.400,337.617 120.400 C 338.504 120.400,339.494 118.950,339.522 117.608 C 339.538 116.842,339.743 116.152,339.976 116.075 C 340.209 115.997,340.400 114.978,340.400 113.809 C 340.400 112.291,340.571 111.620,341.000 111.455 C 341.498 111.264,341.600 110.164,341.600 105.000 C 341.600 99.836,341.498 98.736,341.000 98.545 C 340.612 98.396,340.400 97.776,340.400 96.791 C 340.400 95.952,340.203 95.201,339.963 95.121 C 339.722 95.041,339.507 94.311,339.484 93.500 C 339.461 92.689,339.208 91.935,338.921 91.825 C 338.634 91.715,338.400 91.349,338.400 91.013 C 338.400 90.676,338.130 90.400,337.800 90.400 C 337.427 90.400,337.200 90.022,337.200 89.400 C 337.200 88.778,336.973 88.400,336.600 88.400 C 336.270 88.400,336.000 88.130,336.000 87.800 C 336.000 87.470,335.730 87.200,335.400 87.200 C 335.027 87.200,334.800 86.822,334.800 86.200 C 334.800 85.650,334.609 85.200,334.376 85.200 C 334.143 85.200,334.072 85.393,334.218 85.630 C 334.364 85.866,334.105 85.822,333.642 85.533 C 333.179 85.244,332.800 84.781,332.800 84.504 C 332.800 84.227,332.530 84.000,332.200 84.000 C 331.870 84.000,331.600 83.730,331.600 83.400 C 331.600 83.070,331.330 82.800,331.000 82.800 C 330.670 82.800,330.400 82.530,330.400 82.200 C 330.400 81.827,330.022 81.600,329.400 81.600 C 328.778 81.600,328.400 81.373,328.400 81.000 C 328.400 80.670,328.130 80.400,327.800 80.400 C 327.470 80.400,327.200 80.220,327.200 80.000 C 327.200 79.780,326.660 79.600,326.000 79.600 C 325.221 79.600,324.800 79.397,324.800 79.023 C 324.800 78.630,324.257 78.407,323.100 78.323 C 322.002 78.244,321.435 78.023,321.500 77.700 C 321.574 77.331,320.707 77.200,318.200 77.200 C 315.684 77.200,314.800 77.065,314.800 76.682 C 314.800 75.946,310.915 75.924,310.633 76.658 M350.400 112.200 C 350.400 112.530,350.220 112.800,350.000 112.800 C 349.780 112.800,349.600 113.070,349.600 113.400 C 349.600 113.730,349.330 114.000,349.000 114.000 C 348.511 114.000,348.400 114.668,348.400 117.613 C 348.400 120.455,348.528 121.274,349.000 121.455 C 349.330 121.582,349.600 121.936,349.600 122.243 C 349.600 122.549,349.780 122.800,350.000 122.800 C 350.220 122.800,350.400 123.070,350.400 123.400 C 350.400 124.840,357.527 124.197,359.060 122.620 C 360.884 120.741,361.079 116.121,359.400 114.565 C 358.850 114.055,358.400 113.450,358.400 113.219 C 358.400 112.989,358.130 112.800,357.800 112.800 C 357.470 112.800,357.200 112.530,357.200 112.200 C 357.200 111.714,356.556 111.600,353.800 111.600 C 351.044 111.600,350.400 111.714,350.400 112.200 M282.000 120.000 C 282.000 120.220,281.190 120.400,280.200 120.400 C 278.867 120.400,278.400 120.556,278.400 121.000 C 278.400 121.433,277.956 121.600,276.800 121.600 C 275.644 121.600,275.200 121.767,275.200 122.200 C 275.200 122.600,274.800 122.800,274.000 122.800 C 273.200 122.800,272.800 123.000,272.800 123.400 C 272.800 123.764,272.428 124.000,271.856 124.000 C 271.316 124.000,270.591 124.428,270.161 125.000 C 269.742 125.558,269.004 126.000,268.493 126.000 C 267.988 126.000,267.471 126.270,267.345 126.600 C 267.218 126.930,266.684 127.200,266.157 127.200 C 265.573 127.200,265.200 127.434,265.200 127.800 C 265.200 128.205,264.795 128.400,263.957 128.400 C 263.017 128.400,262.770 128.546,262.945 129.000 C 263.101 129.408,262.923 129.600,262.387 129.600 C 261.954 129.600,261.600 129.780,261.600 130.000 C 261.600 130.220,261.234 130.400,260.787 130.400 C 260.341 130.400,259.871 130.670,259.745 131.000 C 259.613 131.342,259.017 131.600,258.357 131.600 C 257.595 131.600,257.200 131.805,257.200 132.200 C 257.200 132.573,256.822 132.800,256.200 132.800 C 255.578 132.800,255.200 133.027,255.200 133.400 C 255.200 133.730,254.930 134.000,254.600 134.000 C 254.270 134.000,254.000 134.270,254.000 134.600 C 254.000 135.000,253.600 135.200,252.800 135.200 C 252.140 135.200,251.600 135.380,251.600 135.600 C 251.600 135.820,251.150 136.000,250.600 136.000 C 249.978 136.000,249.600 136.227,249.600 136.600 C 249.600 137.000,249.200 137.200,248.400 137.200 C 247.641 137.200,247.200 137.405,247.200 137.757 C 247.200 138.429,246.109 138.911,245.464 138.525 C 245.134 138.327,245.138 138.418,245.480 138.840 C 245.874 139.328,245.804 139.445,245.086 139.499 C 244.605 139.535,244.149 139.752,244.073 139.982 C 243.996 140.212,243.408 140.400,242.767 140.400 C 241.996 140.400,241.600 140.604,241.600 141.000 C 241.600 141.373,241.222 141.600,240.600 141.600 C 239.978 141.600,239.600 141.827,239.600 142.200 C 239.600 142.530,239.330 142.800,239.000 142.800 C 238.670 142.800,238.400 143.070,238.400 143.400 C 238.400 143.800,238.000 144.000,237.200 144.000 C 236.400 144.000,236.000 144.200,236.000 144.600 C 236.000 144.973,235.622 145.200,235.000 145.200 C 234.450 145.200,234.000 145.380,234.000 145.600 C 234.000 145.820,233.730 146.000,233.400 146.000 C 233.070 146.000,232.800 146.270,232.800 146.600 C 232.800 147.000,232.400 147.200,231.600 147.200 C 230.800 147.200,230.400 147.400,230.400 147.800 C 230.400 148.130,230.220 148.400,230.000 148.400 C 229.780 148.400,229.600 148.670,229.600 149.000 C 229.600 149.330,229.330 149.600,229.000 149.600 C 228.670 149.600,228.400 149.767,228.400 149.971 C 228.400 150.175,228.085 150.424,227.700 150.524 C 227.033 150.698,227.033 150.709,227.700 150.754 C 228.085 150.779,228.400 150.999,228.400 151.243 C 228.400 151.486,228.130 151.582,227.800 151.455 C 227.392 151.299,227.200 151.477,227.200 152.013 C 227.200 152.446,226.930 152.800,226.600 152.800 C 226.270 152.800,226.000 153.070,226.000 153.400 C 226.000 153.730,225.820 154.000,225.600 154.000 C 225.380 154.000,225.200 154.270,225.200 154.600 C 225.200 154.930,224.930 155.200,224.600 155.200 C 224.270 155.200,224.000 155.368,224.000 155.573 C 224.000 155.779,223.505 156.004,222.900 156.073 C 222.036 156.173,221.773 156.436,221.673 157.300 C 221.601 157.930,221.302 158.400,220.973 158.400 C 220.658 158.400,220.400 158.593,220.400 158.829 C 220.400 159.382,219.382 160.400,218.829 160.400 C 218.593 160.400,218.400 160.670,218.400 161.000 C 218.400 161.330,218.130 161.600,217.800 161.600 C 217.470 161.600,217.200 161.870,217.200 162.200 C 217.200 162.530,216.930 162.800,216.600 162.800 C 216.270 162.800,216.000 163.070,216.000 163.400 C 216.000 163.730,215.820 164.000,215.600 164.000 C 215.380 164.000,215.200 164.270,215.200 164.600 C 215.200 164.930,214.930 165.200,214.600 165.200 C 214.270 165.200,214.000 165.380,214.000 165.600 C 214.000 165.820,213.730 166.000,213.400 166.000 C 213.070 166.000,212.800 166.270,212.800 166.600 C 212.800 166.930,212.530 167.200,212.200 167.200 C 211.870 167.200,211.600 167.451,211.600 167.757 C 211.600 168.064,211.330 168.418,211.000 168.545 C 210.670 168.671,210.394 169.096,210.387 169.487 C 210.372 170.362,209.475 171.600,208.856 171.600 C 208.605 171.600,208.400 171.870,208.400 172.200 C 208.400 172.530,208.130 172.800,207.800 172.800 C 207.470 172.800,207.200 173.070,207.200 173.400 C 207.200 173.730,206.930 174.000,206.600 174.000 C 206.270 174.000,206.000 174.193,206.000 174.429 C 206.000 174.664,205.743 175.114,205.429 175.429 C 205.114 175.743,204.664 176.000,204.429 176.000 C 204.193 176.000,204.000 176.270,204.000 176.600 C 204.000 176.930,203.730 177.200,203.400 177.200 C 203.070 177.200,202.800 177.470,202.800 177.800 C 202.800 178.130,202.530 178.400,202.200 178.400 C 201.870 178.400,201.600 178.566,201.600 178.769 C 201.600 179.250,199.250 181.600,198.769 181.600 C 198.566 181.600,198.400 181.954,198.400 182.387 C 198.400 182.923,198.208 183.101,197.800 182.945 C 197.346 182.770,197.200 183.017,197.200 183.957 C 197.200 184.641,196.995 185.200,196.744 185.200 C 195.588 185.200,195.225 186.643,195.213 191.300 C 195.205 194.175,195.355 196.000,195.600 196.000 C 195.820 196.000,196.000 196.540,196.000 197.200 C 196.000 198.000,196.200 198.400,196.600 198.400 C 196.930 198.400,197.200 198.670,197.200 199.000 C 197.200 199.330,197.470 199.600,197.800 199.600 C 198.130 199.600,198.400 199.780,198.400 200.000 C 198.400 200.220,198.670 200.400,199.000 200.400 C 199.330 200.400,199.600 200.670,199.600 201.000 C 199.600 201.330,199.780 201.600,200.000 201.600 C 200.220 201.600,200.400 201.870,200.400 202.200 C 200.400 202.600,200.800 202.800,201.600 202.800 C 202.400 202.800,202.800 203.000,202.800 203.400 C 202.800 203.897,203.556 204.000,207.200 204.000 C 210.844 204.000,211.600 203.897,211.600 203.400 C 211.600 203.042,211.968 202.800,212.511 202.800 C 213.404 202.800,214.800 201.577,214.800 200.795 C 214.800 200.578,215.070 200.400,215.400 200.400 C 215.730 200.400,216.000 200.220,216.000 200.000 C 216.000 199.780,216.270 199.600,216.600 199.600 C 216.930 199.600,217.200 199.330,217.200 199.000 C 217.200 198.670,217.470 198.400,217.800 198.400 C 218.130 198.400,218.400 198.130,218.400 197.800 C 218.400 197.470,218.670 197.200,219.000 197.200 C 219.330 197.200,219.600 196.930,219.600 196.600 C 219.600 196.270,219.780 196.000,220.000 196.000 C 220.220 196.000,220.400 195.730,220.400 195.400 C 220.400 195.070,220.594 194.800,220.832 194.800 C 221.394 194.800,224.800 191.394,224.800 190.832 C 224.800 190.594,225.070 190.400,225.400 190.400 C 225.730 190.400,226.000 190.220,226.000 190.000 C 226.000 189.780,226.270 189.600,226.600 189.600 C 226.930 189.600,227.200 189.330,227.200 189.000 C 227.200 188.670,227.470 188.400,227.800 188.400 C 228.130 188.400,228.400 188.130,228.400 187.800 C 228.400 187.470,228.670 187.200,229.000 187.200 C 229.400 187.200,229.600 186.800,229.600 186.000 C 229.600 184.987,229.756 184.800,230.600 184.800 C 231.400 184.800,231.600 184.600,231.600 183.800 C 231.600 183.178,231.827 182.800,232.200 182.800 C 232.530 182.800,232.800 182.530,232.800 182.200 C 232.800 181.870,233.070 181.600,233.400 181.600 C 233.730 181.600,234.000 181.414,234.000 181.187 C 234.000 180.669,236.291 178.400,236.814 178.400 C 237.026 178.400,237.200 178.130,237.200 177.800 C 237.200 177.470,237.470 177.200,237.800 177.200 C 238.130 177.200,238.400 177.026,238.400 176.814 C 238.400 176.291,240.669 174.000,241.187 174.000 C 241.414 174.000,241.600 173.730,241.600 173.400 C 241.600 173.070,241.870 172.800,242.200 172.800 C 242.530 172.800,242.800 172.530,242.800 172.200 C 242.800 171.870,243.070 171.600,243.400 171.600 C 243.730 171.600,244.000 171.373,244.000 171.095 C 244.000 170.817,244.450 170.252,245.000 169.839 C 245.550 169.426,246.000 168.849,246.000 168.557 C 246.000 168.248,246.252 168.122,246.600 168.255 C 246.980 168.401,247.200 168.250,247.200 167.843 C 247.200 167.489,247.470 167.200,247.800 167.200 C 248.130 167.200,248.400 167.020,248.400 166.800 C 248.400 166.106,249.967 164.800,250.800 164.800 C 251.240 164.800,251.600 164.620,251.600 164.400 C 251.600 164.180,252.140 164.000,252.800 164.000 C 253.600 164.000,254.000 163.800,254.000 163.400 C 254.000 163.027,254.378 162.800,255.000 162.800 C 255.622 162.800,256.000 162.573,256.000 162.200 C 256.000 161.800,256.400 161.600,257.200 161.600 C 258.000 161.600,258.400 161.800,258.400 162.200 C 258.400 162.530,258.130 162.800,257.800 162.800 C 257.369 162.800,257.200 163.240,257.200 164.357 C 257.200 165.372,256.991 165.995,256.600 166.145 C 256.166 166.311,256.000 166.992,256.000 168.611 C 256.000 170.000,255.848 170.754,255.600 170.600 C 255.356 170.449,255.200 171.063,255.200 172.176 C 255.200 173.531,255.046 174.000,254.600 174.000 C 254.167 174.000,254.000 174.444,254.000 175.600 C 254.000 176.756,253.833 177.200,253.400 177.200 C 252.967 177.200,252.800 177.644,252.800 178.800 C 252.800 179.956,252.633 180.400,252.200 180.400 C 251.733 180.400,251.600 180.933,251.600 182.800 C 251.600 184.498,251.448 185.200,251.082 185.200 C 250.767 185.200,250.524 185.790,250.464 186.700 C 250.410 187.525,250.193 188.260,249.982 188.333 C 249.772 188.407,249.600 189.152,249.600 189.991 C 249.600 190.976,249.388 191.596,249.000 191.745 C 248.608 191.895,248.400 192.518,248.400 193.545 C 248.400 194.629,248.198 195.192,247.745 195.366 C 247.211 195.571,247.135 195.990,247.331 197.650 C 247.544 199.444,247.480 199.706,246.786 199.888 C 246.200 200.041,246.000 200.438,246.000 201.447 C 246.000 202.191,245.820 202.800,245.600 202.800 C 245.380 202.800,245.200 203.610,245.200 204.600 C 245.200 205.933,245.044 206.400,244.600 206.400 C 244.227 206.400,244.000 206.778,244.000 207.400 C 244.000 208.060,243.777 208.400,243.344 208.400 C 242.786 208.400,242.721 208.754,242.907 210.800 C 243.103 212.970,243.051 213.200,242.362 213.200 C 241.741 213.200,241.600 213.493,241.600 214.787 C 241.600 215.975,241.460 216.321,241.047 216.163 C 240.655 216.012,240.445 216.367,240.327 217.375 C 240.235 218.159,240.304 218.800,240.480 218.800 C 240.656 218.800,240.800 218.980,240.800 219.200 C 240.800 219.420,240.530 219.600,240.200 219.600 C 239.767 219.600,239.600 220.044,239.600 221.200 C 239.600 222.356,239.433 222.800,239.000 222.800 C 238.569 222.800,238.400 223.240,238.400 224.357 C 238.400 225.372,238.191 225.995,237.800 226.145 C 237.404 226.297,237.200 226.923,237.200 227.987 C 237.200 229.154,237.034 229.600,236.600 229.600 C 236.167 229.600,236.000 230.044,236.000 231.200 C 236.000 232.080,235.820 232.800,235.600 232.800 C 235.380 232.800,235.200 233.520,235.200 234.400 C 235.200 235.556,235.033 236.000,234.600 236.000 C 234.156 236.000,234.000 236.467,234.000 237.800 C 234.000 239.133,233.844 239.600,233.400 239.600 C 232.939 239.600,232.800 240.111,232.800 241.800 C 232.800 243.570,232.672 244.000,232.146 244.000 C 231.600 244.000,231.532 244.300,231.738 245.800 C 231.950 247.348,231.886 247.600,231.277 247.600 C 230.832 247.600,230.545 247.931,230.503 248.494 C 230.466 248.986,230.248 249.451,230.018 249.527 C 229.788 249.604,229.600 250.267,229.600 251.001 C 229.600 252.545,229.242 253.673,228.832 253.420 C 228.675 253.323,228.504 254.076,228.451 255.094 C 228.393 256.231,228.111 257.123,227.721 257.408 C 227.242 257.759,227.154 258.230,227.362 259.336 C 227.629 260.761,227.414 261.047,226.242 260.828 C 225.945 260.773,226.188 306.604,226.613 330.800 C 226.729 337.419,226.547 339.200,225.755 339.200 C 225.450 339.200,225.200 339.380,225.200 339.600 C 225.200 339.820,225.425 339.955,225.700 339.900 C 226.067 339.827,226.193 340.623,226.175 342.900 C 226.157 345.204,226.285 346.000,226.675 346.000 C 226.990 346.000,227.200 346.474,227.200 347.187 C 227.200 348.079,227.350 348.317,227.800 348.145 C 228.240 347.976,228.400 348.196,228.400 348.970 C 228.400 349.550,228.670 350.129,229.000 350.255 C 229.330 350.382,229.600 350.717,229.600 351.000 C 229.600 351.283,229.881 351.622,230.225 351.754 C 230.569 351.886,230.739 352.176,230.602 352.397 C 230.465 352.619,230.614 352.800,230.934 352.800 C 231.253 352.800,231.618 353.070,231.745 353.400 C 231.871 353.730,232.431 354.000,232.987 354.000 C 233.544 354.000,234.000 354.168,234.000 354.373 C 234.000 354.579,234.495 354.804,235.100 354.873 C 235.719 354.945,236.156 355.219,236.100 355.500 C 236.031 355.846,236.611 356.000,237.987 356.000 C 239.470 356.000,239.923 356.134,239.772 356.529 C 239.617 356.932,240.188 357.065,242.171 357.088 C 243.929 357.109,244.745 356.970,244.687 356.660 C 244.631 356.363,245.482 356.158,247.080 356.081 C 249.056 355.987,249.515 355.844,249.338 355.381 C 249.178 354.965,249.408 354.800,250.147 354.800 C 251.164 354.800,254.800 351.666,254.800 350.789 C 254.800 350.575,255.070 350.400,255.400 350.400 C 255.730 350.400,256.000 350.220,256.000 350.000 C 256.000 349.780,256.278 349.600,256.618 349.600 C 256.957 349.600,257.206 349.375,257.170 349.100 C 257.013 347.894,257.243 347.200,257.800 347.200 C 258.246 347.200,258.400 346.731,258.400 345.376 C 258.400 344.373,258.561 343.652,258.758 343.774 C 259.705 344.359,260.114 268.509,259.174 266.751 C 258.810 266.072,258.874 265.906,259.570 265.724 C 260.204 265.558,260.400 265.187,260.400 264.153 C 260.400 263.217,260.585 262.800,261.000 262.800 C 261.395 262.800,261.600 262.405,261.600 261.643 C 261.600 260.983,261.858 260.387,262.200 260.255 C 262.577 260.111,262.800 259.499,262.800 258.613 C 262.800 257.624,262.980 257.200,263.400 257.200 C 263.860 257.200,264.000 256.692,264.000 255.024 C 264.000 253.827,264.180 252.736,264.400 252.600 C 264.620 252.464,264.800 251.753,264.800 251.019 C 264.800 250.203,265.033 249.596,265.400 249.455 C 265.796 249.303,266.000 248.677,266.000 247.613 C 266.000 246.389,266.157 246.000,266.652 246.000 C 267.186 246.000,267.268 245.681,267.105 244.233 C 266.937 242.747,267.025 242.435,267.653 242.270 C 268.172 242.135,268.400 241.710,268.400 240.880 C 268.400 240.187,268.652 239.589,269.000 239.455 C 269.396 239.303,269.600 238.677,269.600 237.613 C 269.600 236.726,269.780 236.000,270.000 236.000 C 270.220 236.000,270.400 235.730,270.400 235.400 C 270.400 235.070,270.670 234.800,271.000 234.800 C 271.330 234.800,271.600 234.620,271.600 234.400 C 271.600 234.180,272.081 234.000,272.669 234.000 C 273.256 234.000,274.085 233.685,274.511 233.300 C 275.156 232.717,275.929 232.618,279.143 232.709 C 281.264 232.769,283.540 232.831,284.200 232.847 C 287.741 232.932,300.038 231.901,301.571 231.390 C 302.545 231.066,304.199 230.800,305.245 230.800 C 307.662 230.800,309.220 230.210,309.485 229.195 C 309.600 228.758,309.869 228.400,310.083 228.400 C 310.310 228.400,310.417 227.350,310.339 225.900 C 310.221 223.703,310.289 223.414,310.902 223.518 C 311.470 223.613,311.600 223.334,311.600 222.018 C 311.600 220.785,311.756 220.400,312.256 220.400 C 312.813 220.400,312.877 220.063,312.680 218.156 C 312.475 216.166,312.536 215.889,313.224 215.710 C 313.796 215.560,314.000 215.156,314.000 214.177 C 314.000 213.446,314.180 212.736,314.400 212.600 C 314.620 212.464,314.800 211.753,314.800 211.019 C 314.800 210.203,315.033 209.596,315.400 209.455 C 315.796 209.303,316.000 208.677,316.000 207.613 C 316.000 206.446,316.166 206.000,316.600 206.000 C 317.033 206.000,317.200 205.556,317.200 204.400 C 317.200 203.296,317.373 202.800,317.760 202.800 C 318.366 202.800,318.864 199.286,318.306 198.942 C 317.752 198.599,317.987 198.097,318.800 197.884 C 319.346 197.741,319.600 197.338,319.600 196.614 C 319.600 196.030,319.744 195.642,319.920 195.751 C 320.096 195.859,320.284 195.287,320.339 194.479 C 320.393 193.672,320.699 192.864,321.019 192.685 C 321.405 192.469,321.600 191.696,321.600 190.380 C 321.600 188.887,321.747 188.400,322.200 188.400 C 322.644 188.400,322.800 187.933,322.800 186.600 C 322.800 185.393,322.971 184.800,323.318 184.800 C 323.632 184.800,323.876 184.212,323.937 183.312 C 323.992 182.494,324.234 181.703,324.475 181.554 C 324.763 181.375,324.821 180.473,324.644 178.907 C 324.350 176.312,324.587 175.200,325.433 175.200 C 325.850 175.200,325.891 174.964,325.603 174.207 C 325.240 173.252,325.738 170.836,326.883 168.000 C 328.511 163.967,330.192 157.892,330.772 153.940 C 330.954 152.697,331.245 151.451,331.418 151.171 C 331.591 150.891,331.869 150.018,332.035 149.231 C 332.201 148.444,332.640 146.810,333.012 145.600 C 333.962 142.506,334.110 140.400,333.378 140.400 C 333.060 140.400,332.800 140.220,332.800 140.000 C 332.800 139.780,332.553 139.600,332.250 139.600 C 331.947 139.600,331.590 139.048,331.455 138.373 C 331.318 137.692,331.030 137.258,330.805 137.397 C 330.582 137.535,330.400 137.277,330.400 136.824 C 330.400 136.344,330.139 136.000,329.776 136.000 C 329.433 136.000,329.264 135.820,329.400 135.600 C 329.536 135.380,329.367 135.200,329.024 135.200 C 328.681 135.200,328.400 134.930,328.400 134.600 C 328.400 134.270,328.130 134.000,327.800 134.000 C 327.470 134.000,327.200 133.730,327.200 133.400 C 327.200 133.070,326.930 132.800,326.600 132.800 C 326.270 132.800,326.000 132.530,326.000 132.200 C 326.000 131.769,325.560 131.600,324.443 131.600 C 323.428 131.600,322.805 131.391,322.655 131.000 C 322.529 130.670,321.969 130.400,321.413 130.400 C 320.856 130.400,320.400 130.220,320.400 130.000 C 320.400 129.780,319.680 129.600,318.800 129.600 C 317.644 129.600,317.200 129.433,317.200 129.000 C 317.200 128.541,316.694 128.400,315.043 128.400 C 313.494 128.400,312.821 128.231,312.655 127.800 C 312.511 127.423,311.899 127.200,311.013 127.200 C 310.101 127.200,309.600 127.011,309.600 126.666 C 309.600 126.314,309.019 126.108,307.900 126.065 C 306.965 126.028,306.140 125.819,306.067 125.599 C 305.993 125.380,305.228 125.200,304.367 125.200 C 303.241 125.200,302.800 125.031,302.800 124.600 C 302.800 124.139,302.289 124.000,300.600 124.000 C 298.911 124.000,298.400 123.861,298.400 123.400 C 298.400 122.958,297.938 122.800,296.643 122.800 C 295.450 122.800,294.812 122.607,294.655 122.200 C 294.513 121.828,293.904 121.600,293.055 121.600 C 292.207 121.600,291.598 121.372,291.455 121.000 C 291.293 120.577,290.632 120.400,289.213 120.400 C 288.106 120.400,287.200 120.220,287.200 120.000 C 287.200 119.774,286.067 119.600,284.600 119.600 C 283.133 119.600,282.000 119.774,282.000 120.000 M339.600 126.600 C 339.600 126.975,339.221 127.200,338.587 127.200 C 338.031 127.200,337.471 127.470,337.345 127.800 C 337.218 128.130,336.864 128.400,336.557 128.400 C 336.120 128.400,336.000 129.219,336.000 132.200 C 336.000 135.311,336.109 136.000,336.600 136.000 C 336.930 136.000,337.200 136.270,337.200 136.600 C 337.200 136.930,337.390 137.200,337.623 137.200 C 337.855 137.200,338.548 137.750,339.162 138.423 C 340.318 139.689,344.795 140.172,344.803 139.032 C 344.805 138.794,345.255 138.392,345.804 138.137 C 346.352 137.883,346.700 137.838,346.577 138.037 C 346.454 138.237,346.543 138.400,346.776 138.400 C 347.009 138.400,347.200 137.860,347.200 137.200 C 347.200 136.400,347.400 136.000,347.800 136.000 C 348.283 136.000,348.400 135.378,348.400 132.800 C 348.400 130.222,348.283 129.600,347.800 129.600 C 347.470 129.600,347.200 129.330,347.200 129.000 C 347.200 128.670,346.930 128.400,346.600 128.400 C 346.270 128.400,346.000 128.130,346.000 127.800 C 346.000 127.434,345.627 127.200,345.043 127.200 C 344.516 127.200,343.982 126.930,343.855 126.600 C 343.693 126.177,343.032 126.000,341.613 126.000 C 340.090 126.000,339.600 126.146,339.600 126.600 M360.400 132.200 C 360.400 132.573,360.022 132.800,359.400 132.800 C 358.564 132.800,358.400 132.990,358.400 133.957 C 358.400 134.617,358.142 135.213,357.800 135.345 C 357.358 135.514,357.200 136.212,357.200 137.987 C 357.200 139.865,357.333 140.400,357.800 140.400 C 358.200 140.400,358.400 140.800,358.400 141.600 C 358.400 142.613,358.556 142.800,359.400 142.800 C 360.022 142.800,360.400 143.027,360.400 143.400 C 360.400 143.891,361.075 143.999,364.100 143.993 C 368.111 143.986,369.600 143.241,369.600 141.244 C 369.600 140.780,369.780 140.400,370.000 140.400 C 370.947 140.400,370.447 135.535,369.400 134.565 C 368.850 134.055,368.400 133.450,368.400 133.219 C 368.400 132.989,368.130 132.800,367.800 132.800 C 367.470 132.800,367.200 132.530,367.200 132.200 C 367.200 131.714,366.556 131.600,363.800 131.600 C 361.044 131.600,360.400 131.714,360.400 132.200 M380.289 141.205 C 379.910 141.647,379.600 142.187,379.600 142.405 C 379.600 142.622,379.330 142.800,379.000 142.800 C 378.670 142.800,378.400 143.070,378.400 143.400 C 378.400 143.730,378.130 144.000,377.800 144.000 C 376.792 144.000,376.965 148.821,378.005 149.711 C 378.447 150.090,378.987 150.400,379.205 150.400 C 379.422 150.400,379.600 150.940,379.600 151.600 C 379.600 152.599,379.760 152.800,380.557 152.800 C 381.084 152.800,381.618 153.070,381.745 153.400 C 381.907 153.823,382.568 154.000,383.987 154.000 C 385.510 154.000,386.000 153.854,386.000 153.400 C 386.000 153.000,386.400 152.800,387.200 152.800 C 387.959 152.800,388.400 152.595,388.400 152.243 C 388.400 151.936,388.670 151.582,389.000 151.455 C 389.330 151.329,389.600 150.870,389.600 150.436 C 389.600 150.002,389.780 149.536,390.000 149.400 C 390.220 149.264,390.400 148.263,390.400 147.176 C 390.400 146.089,390.220 145.200,390.000 145.200 C 389.780 145.200,389.600 144.756,389.600 144.214 C 389.600 143.633,389.267 143.050,388.789 142.794 C 388.343 142.555,388.060 142.227,388.160 142.065 C 388.260 141.902,387.867 141.730,387.286 141.682 C 386.704 141.634,386.078 141.326,385.895 140.997 C 385.351 140.027,381.165 140.181,380.289 141.205 M364.000 156.600 C 364.000 156.930,363.730 157.200,363.400 157.200 C 363.070 157.200,362.800 157.451,362.800 157.757 C 362.800 158.064,362.530 158.418,362.200 158.545 C 361.745 158.719,361.600 159.458,361.600 161.600 C 361.600 163.742,361.745 164.481,362.200 164.655 C 362.542 164.787,362.800 165.383,362.800 166.043 C 362.800 167.052,362.948 167.200,363.957 167.200 C 364.617 167.200,365.213 167.458,365.345 167.800 C 365.519 168.255,366.258 168.400,368.400 168.400 C 370.542 168.400,371.281 168.255,371.455 167.800 C 371.582 167.470,371.936 167.200,372.243 167.200 C 372.549 167.200,372.800 166.930,372.800 166.600 C 372.800 166.270,373.070 166.000,373.400 166.000 C 373.803 166.000,374.000 165.597,374.000 164.776 C 374.000 164.063,374.167 163.656,374.400 163.800 C 374.626 163.940,374.800 163.612,374.800 163.047 C 374.800 162.497,374.620 161.936,374.400 161.800 C 374.180 161.664,374.000 160.843,374.000 159.976 C 374.000 159.109,373.820 158.400,373.600 158.400 C 373.081 158.400,371.600 156.919,371.600 156.400 C 371.600 156.161,370.067 156.000,367.800 156.000 C 364.689 156.000,364.000 156.109,364.000 156.600 " stroke="none" fill="#c6c6c6" fill-rule="evenodd"></path><path id="path2" d="M142.800 67.835 C 142.800 68.268,142.146 68.400,140.000 68.400 C 137.778 68.400,137.200 68.524,137.200 69.000 C 137.200 69.433,136.756 69.600,135.600 69.600 C 134.720 69.600,134.000 69.780,134.000 70.000 C 134.000 70.220,133.653 70.400,133.229 70.400 C 132.804 70.400,132.187 70.670,131.857 71.000 C 131.527 71.330,130.884 71.600,130.429 71.600 C 129.959 71.600,129.600 71.860,129.600 72.200 C 129.600 72.530,129.330 72.800,129.000 72.800 C 128.670 72.800,128.400 73.070,128.400 73.400 C 128.400 73.800,128.000 74.000,127.200 74.000 C 126.540 74.000,126.000 74.193,126.000 74.429 C 126.000 74.982,124.982 76.000,124.429 76.000 C 124.193 76.000,124.000 76.270,124.000 76.600 C 124.000 76.930,123.730 77.200,123.400 77.200 C 123.070 77.200,122.800 77.451,122.800 77.757 C 122.800 78.064,122.530 78.418,122.200 78.545 C 121.870 78.671,121.600 79.059,121.600 79.407 C 121.600 79.754,121.150 80.455,120.600 80.965 C 120.021 81.502,119.600 82.335,119.600 82.946 C 119.600 83.616,119.382 84.000,119.000 84.000 C 118.597 84.000,118.400 84.403,118.400 85.224 C 118.400 85.897,118.239 86.348,118.042 86.226 C 117.547 85.920,117.200 86.976,117.200 88.790 C 117.200 89.776,116.988 90.396,116.600 90.545 C 116.099 90.737,116.000 91.902,116.000 97.600 C 116.000 103.298,116.099 104.463,116.600 104.655 C 117.021 104.817,117.200 105.473,117.200 106.855 C 117.200 108.237,117.379 108.894,117.800 109.055 C 118.142 109.187,118.400 109.783,118.400 110.443 C 118.400 111.205,118.605 111.600,119.000 111.600 C 119.375 111.600,119.600 111.979,119.600 112.613 C 119.600 113.169,119.869 113.728,120.198 113.854 C 120.526 113.981,120.696 114.245,120.574 114.442 C 120.452 114.639,120.633 114.800,120.976 114.800 C 121.320 114.800,121.600 115.137,121.600 115.551 C 121.600 115.964,121.870 116.526,122.200 116.800 C 122.530 117.074,122.800 117.546,122.800 117.849 C 122.800 118.152,122.987 118.400,123.216 118.400 C 123.445 118.400,124.317 119.120,125.154 120.000 C 126.011 120.901,127.053 121.600,127.538 121.600 C 128.038 121.600,128.400 121.852,128.400 122.200 C 128.400 122.530,128.651 122.800,128.957 122.800 C 129.264 122.800,129.618 123.070,129.745 123.400 C 129.871 123.730,130.341 124.000,130.787 124.000 C 131.234 124.000,131.600 124.180,131.600 124.400 C 131.600 124.620,132.140 124.800,132.800 124.800 C 133.575 124.800,134.000 125.003,134.000 125.373 C 134.000 125.702,134.470 126.001,135.100 126.073 C 135.719 126.145,136.156 126.419,136.100 126.700 C 136.025 127.073,137.013 127.200,140.000 127.200 C 143.289 127.200,144.000 127.307,144.000 127.800 C 144.000 128.261,144.511 128.400,146.200 128.400 C 147.889 128.400,148.400 128.261,148.400 127.800 C 148.400 127.317,149.022 127.200,151.600 127.200 C 154.178 127.200,154.800 127.083,154.800 126.600 C 154.800 126.156,155.267 126.000,156.600 126.000 C 157.933 126.000,158.400 125.844,158.400 125.400 C 158.400 125.054,158.762 124.800,159.254 124.800 C 159.724 124.800,160.499 124.378,160.977 123.863 C 161.455 123.347,162.338 122.802,162.939 122.651 C 163.541 122.500,163.925 122.202,163.793 121.988 C 163.661 121.775,163.833 121.600,164.176 121.600 C 164.519 121.600,164.800 121.330,164.800 121.000 C 164.800 120.670,165.070 120.400,165.400 120.400 C 165.730 120.400,166.000 120.220,166.000 120.000 C 166.000 119.780,166.270 119.600,166.600 119.600 C 166.930 119.600,167.200 119.330,167.200 119.000 C 167.200 118.670,167.470 118.400,167.800 118.400 C 168.130 118.400,168.400 118.130,168.400 117.800 C 168.400 117.470,168.670 117.200,169.000 117.200 C 169.330 117.200,169.600 116.930,169.600 116.600 C 169.600 116.270,169.780 116.000,170.000 116.000 C 170.220 116.000,170.400 115.730,170.400 115.400 C 170.400 115.070,170.670 114.800,171.000 114.800 C 171.366 114.800,171.600 114.427,171.600 113.843 C 171.600 113.316,171.870 112.782,172.200 112.655 C 172.530 112.529,172.800 111.989,172.800 111.455 C 172.800 110.922,173.070 110.382,173.400 110.255 C 173.730 110.129,174.000 109.659,174.000 109.213 C 174.000 108.766,174.180 108.400,174.400 108.400 C 174.629 108.400,174.800 107.200,174.800 105.600 C 174.800 103.344,174.920 102.800,175.417 102.800 C 175.946 102.800,176.026 102.004,175.977 97.200 C 175.932 92.691,175.812 91.600,175.361 91.600 C 174.948 91.600,174.800 91.020,174.800 89.400 C 174.800 88.190,174.620 87.200,174.400 87.200 C 174.180 87.200,174.000 86.750,174.000 86.200 C 174.000 85.578,173.773 85.200,173.400 85.200 C 173.000 85.200,172.800 84.800,172.800 84.000 C 172.800 83.200,172.600 82.800,172.200 82.800 C 171.800 82.800,171.600 82.400,171.600 81.600 C 171.600 80.940,171.407 80.400,171.171 80.400 C 170.618 80.400,169.600 79.382,169.600 78.829 C 169.600 78.593,169.344 78.400,169.032 78.400 C 168.719 78.400,168.345 77.858,168.199 77.197 C 168.054 76.535,167.788 76.084,167.609 76.194 C 167.430 76.305,167.181 76.126,167.054 75.798 C 166.928 75.469,166.369 75.200,165.813 75.200 C 165.179 75.200,164.800 74.975,164.800 74.600 C 164.800 74.270,164.620 74.000,164.400 74.000 C 164.180 74.000,164.000 73.730,164.000 73.400 C 164.000 73.070,163.749 72.800,163.443 72.800 C 163.136 72.800,162.782 72.530,162.655 72.200 C 162.529 71.870,161.969 71.600,161.413 71.600 C 160.856 71.600,160.400 71.423,160.400 71.208 C 160.400 70.992,159.950 70.702,159.400 70.564 C 158.850 70.426,158.400 70.153,158.400 69.957 C 158.400 69.760,157.429 69.600,156.243 69.600 C 154.694 69.600,154.021 69.431,153.855 69.000 C 153.694 68.579,153.038 68.400,151.662 68.400 C 150.475 68.400,149.516 68.180,149.237 67.845 C 148.575 67.047,142.800 67.038,142.800 67.835 M119.043 116.633 C 118.909 116.981,118.800 120.148,118.800 123.671 C 118.800 129.756,118.336 133.175,117.233 135.213 C 117.051 135.550,116.766 136.446,116.599 137.203 C 116.228 138.893,114.828 141.164,112.537 143.793 C 109.547 147.224,109.499 147.200,119.213 147.200 C 126.321 147.200,127.661 147.293,127.855 147.800 C 128.047 148.300,129.186 148.400,134.671 148.400 C 139.992 148.400,141.372 148.515,141.857 149.000 C 142.187 149.330,143.074 149.600,143.829 149.600 C 144.583 149.600,145.200 149.780,145.200 150.000 C 145.200 150.220,145.650 150.400,146.200 150.400 C 146.822 150.400,147.200 150.627,147.200 151.000 C 147.200 151.330,147.470 151.600,147.800 151.600 C 148.130 151.600,148.400 151.870,148.400 152.200 C 148.400 152.530,148.580 152.800,148.800 152.800 C 149.358 152.800,150.785 154.282,150.500 154.567 C 150.372 154.695,150.567 154.800,150.933 154.800 C 151.300 154.800,151.600 155.070,151.600 155.400 C 151.600 155.730,151.870 156.000,152.200 156.000 C 152.644 156.000,152.800 156.467,152.800 157.800 C 152.800 159.133,152.956 159.600,153.400 159.600 C 153.883 159.600,154.000 160.222,154.000 162.800 C 154.000 165.378,153.883 166.000,153.400 166.000 C 152.956 166.000,152.800 166.467,152.800 167.800 C 152.800 168.819,152.613 169.600,152.369 169.600 C 151.784 169.600,149.600 171.821,149.600 172.416 C 149.600 172.686,149.274 172.808,148.851 172.697 C 148.274 172.547,148.147 172.674,148.297 173.251 C 148.429 173.755,148.282 174.000,147.847 174.000 C 147.491 174.000,147.200 174.205,147.200 174.456 C 147.200 175.316,145.799 175.975,143.943 175.987 C 142.670 175.996,142.013 176.189,141.855 176.600 C 141.506 177.509,132.995 177.477,132.484 176.564 C 132.288 176.214,132.009 175.944,131.864 175.964 C 129.826 176.241,109.210 175.907,109.400 175.600 C 109.562 175.338,106.795 175.200,101.395 175.200 C 94.593 175.200,93.037 175.095,92.543 174.600 C 92.213 174.270,91.416 174.000,90.771 174.000 C 89.997 174.000,89.600 174.203,89.600 174.600 C 89.600 174.930,89.330 175.200,89.000 175.200 C 88.517 175.200,88.400 175.817,88.400 178.357 C 88.400 180.795,88.263 181.567,87.800 181.745 C 87.336 181.923,87.200 182.701,87.200 185.187 C 87.200 187.642,87.071 188.400,86.652 188.400 C 86.247 188.400,86.088 189.108,86.045 191.100 C 86.013 192.585,85.810 193.860,85.594 193.933 C 85.377 194.007,85.200 194.772,85.200 195.633 C 85.200 196.759,85.031 197.200,84.600 197.200 C 84.167 197.200,84.000 197.644,84.000 198.800 C 84.000 199.956,83.833 200.400,83.400 200.400 C 82.956 200.400,82.800 200.867,82.800 202.200 C 82.800 203.533,82.644 204.000,82.200 204.000 C 81.739 204.000,81.600 204.511,81.600 206.200 C 81.600 207.889,81.461 208.400,81.000 208.400 C 80.597 208.400,80.400 208.803,80.400 209.624 C 80.400 210.337,80.233 210.744,80.000 210.600 C 79.756 210.449,79.600 211.063,79.600 212.176 C 79.600 213.531,79.446 214.000,79.000 214.000 C 78.539 214.000,78.400 214.511,78.400 216.200 C 78.400 217.889,78.261 218.400,77.800 218.400 C 77.367 218.400,77.200 218.844,77.200 220.000 C 77.200 221.156,77.033 221.600,76.600 221.600 C 76.156 221.600,76.000 222.067,76.000 223.400 C 76.000 224.390,75.820 225.200,75.600 225.200 C 75.380 225.200,75.200 225.920,75.200 226.800 C 75.200 227.956,75.033 228.400,74.600 228.400 C 74.167 228.400,74.000 228.844,74.000 230.000 C 74.000 231.156,73.833 231.600,73.400 231.600 C 72.939 231.600,72.800 232.111,72.800 233.800 C 72.800 235.489,72.661 236.000,72.200 236.000 C 71.799 236.000,71.600 236.401,71.600 237.213 C 71.600 237.879,71.375 238.512,71.100 238.618 C 70.825 238.724,70.560 239.380,70.511 240.075 C 70.461 240.771,70.249 241.446,70.038 241.576 C 69.828 241.707,69.598 242.620,69.528 243.607 C 69.444 244.777,69.226 245.365,68.900 245.300 C 68.548 245.230,68.400 245.853,68.400 247.400 C 68.400 249.089,68.261 249.600,67.800 249.600 C 67.367 249.600,67.200 250.044,67.200 251.200 C 67.200 252.291,67.025 252.800,66.650 252.800 C 66.319 252.800,66.100 253.231,66.100 253.883 C 66.100 254.479,65.898 255.034,65.650 255.117 C 65.391 255.203,65.200 256.184,65.200 257.433 C 65.200 259.093,65.059 259.600,64.600 259.600 C 64.167 259.600,64.000 260.044,64.000 261.200 C 64.000 262.356,63.833 262.800,63.400 262.800 C 62.966 262.800,62.800 263.246,62.800 264.413 C 62.800 265.477,62.596 266.103,62.200 266.255 C 61.826 266.399,61.600 267.009,61.600 267.871 C 61.600 268.634,61.330 269.527,61.000 269.857 C 60.647 270.210,60.400 271.187,60.400 272.229 C 60.400 273.203,60.220 274.000,60.000 274.000 C 59.780 274.000,59.600 274.720,59.600 275.600 C 59.600 276.727,59.430 277.200,59.023 277.200 C 58.630 277.200,58.407 277.743,58.323 278.900 C 58.244 279.998,58.023 280.565,57.700 280.500 C 57.359 280.432,57.200 280.973,57.200 282.200 C 57.200 283.533,57.044 284.000,56.600 284.000 C 56.167 284.000,56.000 284.444,56.000 285.600 C 56.000 286.480,55.820 287.200,55.600 287.200 C 55.380 287.200,55.200 288.190,55.200 289.400 C 55.200 291.089,55.061 291.600,54.600 291.600 C 54.200 291.600,54.000 292.000,54.000 292.800 C 54.000 293.600,53.800 294.000,53.400 294.000 C 52.967 294.000,52.800 294.444,52.800 295.600 C 52.800 296.756,52.633 297.200,52.200 297.200 C 51.746 297.200,51.600 297.692,51.600 299.229 C 51.600 300.498,51.376 301.482,51.000 301.857 C 50.670 302.187,50.400 303.074,50.400 303.829 C 50.400 304.583,50.220 305.200,50.000 305.200 C 49.780 305.200,49.600 305.920,49.600 306.800 C 49.600 307.956,49.433 308.400,49.000 308.400 C 48.569 308.400,48.400 308.840,48.400 309.957 C 48.400 310.972,48.191 311.595,47.800 311.745 C 47.408 311.895,47.200 312.518,47.200 313.545 C 47.200 314.571,46.992 315.194,46.600 315.345 C 46.223 315.489,46.000 316.101,46.000 316.987 C 46.000 317.764,45.820 318.400,45.600 318.400 C 45.380 318.400,45.200 319.120,45.200 320.000 C 45.200 321.156,45.033 321.600,44.600 321.600 C 44.158 321.600,44.000 322.062,44.000 323.357 C 44.000 324.550,43.807 325.188,43.400 325.345 C 43.028 325.487,42.800 326.096,42.800 326.945 C 42.800 327.793,42.572 328.402,42.200 328.545 C 41.753 328.716,41.600 329.429,41.600 331.345 C 41.600 333.211,41.442 333.975,41.025 334.135 C 40.287 334.418,40.288 337.431,41.027 338.170 C 41.327 338.470,41.612 339.816,41.680 341.251 C 41.764 343.028,41.951 343.770,42.300 343.700 C 42.611 343.638,42.800 344.053,42.800 344.800 C 42.800 345.600,43.000 346.000,43.400 346.000 C 43.730 346.000,44.000 346.270,44.000 346.600 C 44.000 346.930,44.270 347.200,44.600 347.200 C 44.930 347.200,45.200 347.394,45.200 347.631 C 45.200 348.478,47.538 350.400,48.569 350.400 C 49.219 350.400,49.600 350.622,49.600 351.000 C 49.600 351.366,49.973 351.600,50.557 351.600 C 51.084 351.600,51.618 351.870,51.745 352.200 C 51.906 352.621,52.563 352.800,53.945 352.800 C 55.327 352.800,55.983 352.979,56.145 353.400 C 56.280 353.753,56.880 354.000,57.600 354.000 C 58.320 354.000,58.920 353.753,59.055 353.400 C 59.211 352.995,59.846 352.800,61.010 352.800 C 63.006 352.800,64.090 352.470,63.774 351.958 C 63.652 351.761,64.103 351.600,64.776 351.600 C 65.597 351.600,66.000 351.403,66.000 351.000 C 66.000 350.622,66.381 350.400,67.031 350.400 C 68.062 350.400,70.400 348.478,70.400 347.631 C 70.400 347.394,70.670 347.200,71.000 347.200 C 71.400 347.200,71.600 346.800,71.600 346.000 C 71.600 345.200,71.800 344.800,72.200 344.800 C 72.570 344.800,72.800 344.424,72.800 343.820 C 72.800 343.281,73.086 342.680,73.436 342.484 C 73.786 342.288,74.056 342.009,74.036 341.864 C 73.864 340.597,74.071 339.197,74.400 339.400 C 74.644 339.551,74.800 338.937,74.800 337.824 C 74.800 336.469,74.954 336.000,75.400 336.000 C 75.833 336.000,76.000 335.556,76.000 334.400 C 76.000 333.244,76.167 332.800,76.600 332.800 C 77.031 332.800,77.200 332.360,77.200 331.243 C 77.200 330.228,77.409 329.605,77.800 329.455 C 78.233 329.289,78.400 328.610,78.400 327.013 C 78.400 325.468,78.556 324.800,78.918 324.800 C 79.233 324.800,79.476 324.210,79.536 323.300 C 79.590 322.475,79.807 321.740,80.018 321.667 C 80.228 321.593,80.400 320.848,80.400 320.009 C 80.400 319.024,80.612 318.404,81.000 318.255 C 81.396 318.103,81.600 317.477,81.600 316.413 C 81.600 315.246,81.766 314.800,82.200 314.800 C 82.661 314.800,82.800 314.289,82.800 312.600 C 82.800 310.911,82.939 310.400,83.400 310.400 C 83.773 310.400,84.000 310.022,84.000 309.400 C 84.000 308.850,84.180 308.400,84.400 308.400 C 84.620 308.400,84.800 307.590,84.800 306.600 C 84.800 305.267,84.956 304.800,85.400 304.800 C 85.833 304.800,86.000 304.356,86.000 303.200 C 86.000 302.044,86.167 301.600,86.600 301.600 C 87.061 301.600,87.200 301.089,87.200 299.400 C 87.200 297.711,87.339 297.200,87.800 297.200 C 88.178 297.200,88.400 296.819,88.400 296.171 C 88.400 295.606,88.670 294.873,89.000 294.543 C 89.330 294.213,89.600 293.416,89.600 292.771 C 89.600 292.104,89.815 291.597,90.100 291.594 C 90.468 291.589,90.457 291.497,90.057 291.244 C 89.679 291.004,89.649 290.817,89.957 290.626 C 90.201 290.476,90.400 289.643,90.400 288.776 C 90.400 287.642,90.568 287.200,91.000 287.200 C 91.446 287.200,91.600 286.731,91.600 285.376 C 91.600 284.373,91.761 283.652,91.958 283.774 C 92.418 284.058,92.800 283.057,92.800 281.567 C 92.800 280.796,93.004 280.400,93.400 280.400 C 93.832 280.400,94.000 279.958,94.000 278.824 C 94.000 277.957,94.180 277.136,94.400 277.000 C 94.620 276.864,94.800 276.153,94.800 275.419 C 94.800 274.603,95.033 273.996,95.400 273.855 C 95.823 273.693,96.000 273.032,96.000 271.613 C 96.000 270.090,96.146 269.600,96.600 269.600 C 97.000 269.600,97.200 269.200,97.200 268.400 C 97.200 267.600,97.400 267.200,97.800 267.200 C 98.261 267.200,98.400 266.689,98.400 265.000 C 98.400 263.458,98.556 262.800,98.922 262.800 C 99.254 262.800,99.479 262.181,99.542 261.100 C 99.596 260.165,99.811 259.340,100.020 259.267 C 100.229 259.193,100.400 258.428,100.400 257.567 C 100.400 256.441,100.569 256.000,101.000 256.000 C 101.431 256.000,101.600 255.560,101.600 254.443 C 101.600 253.428,101.809 252.805,102.200 252.655 C 102.572 252.513,102.800 251.904,102.800 251.055 C 102.800 250.207,103.028 249.598,103.400 249.455 C 103.813 249.297,104.000 248.652,104.000 247.389 C 104.000 246.237,104.153 245.647,104.410 245.806 C 104.635 245.945,104.794 245.911,104.763 245.730 C 104.484 244.125,104.873 241.600,105.400 241.600 C 105.800 241.600,106.000 241.200,106.000 240.400 C 106.000 239.600,106.200 239.200,106.600 239.200 C 107.033 239.200,107.200 238.756,107.200 237.600 C 107.200 236.444,107.367 236.000,107.800 236.000 C 108.138 236.000,108.400 235.642,108.400 235.181 C 108.400 234.730,108.850 233.945,109.400 233.435 C 109.950 232.925,110.400 232.304,110.400 232.054 C 110.400 231.804,110.856 231.600,111.413 231.600 C 111.969 231.600,112.529 231.330,112.655 231.000 C 112.805 230.609,113.428 230.400,114.443 230.400 C 115.299 230.400,116.000 230.220,116.000 230.000 C 116.000 229.780,116.540 229.600,117.200 229.600 C 117.860 229.600,118.400 229.780,118.400 230.000 C 118.400 230.220,119.390 230.400,120.600 230.400 C 122.302 230.400,122.800 230.538,122.800 231.008 C 122.800 231.823,135.300 231.210,135.819 230.369 C 135.945 230.166,136.412 230.000,136.859 230.000 C 138.934 230.000,145.600 225.950,145.600 224.689 C 145.600 224.479,146.458 223.203,147.507 221.854 C 150.343 218.205,150.673 217.580,150.994 215.241 C 151.216 213.629,151.475 213.053,152.044 212.904 C 152.667 212.741,152.800 212.328,152.800 210.553 C 152.800 208.906,152.941 208.400,153.400 208.400 C 153.886 208.400,154.000 207.756,154.000 205.000 C 154.000 203.000,154.165 201.600,154.400 201.600 C 154.629 201.600,154.800 200.400,154.800 198.800 C 154.800 196.578,154.924 196.000,155.400 196.000 C 155.875 196.000,156.000 195.427,156.000 193.243 C 156.000 191.161,156.147 190.429,156.600 190.255 C 157.060 190.079,157.200 189.320,157.200 187.000 C 157.200 184.680,157.340 183.921,157.800 183.745 C 158.274 183.563,158.400 182.733,158.400 179.800 C 158.400 176.867,158.526 176.037,159.000 175.855 C 159.423 175.693,159.600 175.032,159.600 173.613 C 159.600 172.506,159.780 171.600,160.000 171.600 C 160.228 171.600,160.400 170.411,160.400 168.833 C 160.400 167.034,160.568 166.011,160.881 165.906 C 161.180 165.807,161.445 164.472,161.581 162.373 C 161.707 160.426,161.969 159.044,162.200 159.103 C 162.434 159.163,162.646 157.920,162.712 156.103 C 162.786 154.058,163.010 152.859,163.371 152.586 C 163.939 152.156,163.941 151.161,163.383 143.302 C 163.207 140.821,163.277 139.175,163.595 138.302 C 163.857 137.586,164.219 135.560,164.400 133.800 C 164.581 132.040,165.030 129.430,165.397 128.000 C 166.396 124.111,166.556 122.800,166.031 122.800 C 165.780 122.800,165.471 123.070,165.345 123.400 C 165.213 123.742,164.617 124.000,163.957 124.000 C 163.195 124.000,162.800 124.205,162.800 124.600 C 162.800 124.930,162.530 125.200,162.200 125.200 C 161.870 125.200,161.600 125.380,161.600 125.600 C 161.600 125.820,161.150 126.000,160.600 126.000 C 159.978 126.000,159.600 126.227,159.600 126.600 C 159.600 126.975,159.221 127.200,158.587 127.200 C 158.031 127.200,157.471 127.470,157.345 127.800 C 157.179 128.231,156.506 128.400,154.957 128.400 C 153.306 128.400,152.800 128.541,152.800 129.000 C 152.800 129.509,151.805 129.600,146.243 129.600 C 140.783 129.600,139.647 129.500,139.455 129.000 C 139.289 128.567,138.610 128.400,137.013 128.400 C 135.313 128.400,134.800 128.261,134.800 127.800 C 134.800 127.399,134.399 127.200,133.587 127.200 C 132.879 127.200,132.279 126.951,132.145 126.600 C 132.018 126.270,131.616 126.000,131.252 126.000 C 130.888 126.000,130.252 125.550,129.839 125.000 C 129.409 124.428,128.684 124.000,128.144 124.000 C 127.572 124.000,127.200 123.764,127.200 123.400 C 127.200 123.000,126.800 122.800,126.000 122.800 C 125.340 122.800,124.800 122.606,124.800 122.369 C 124.800 122.132,124.274 121.412,123.631 120.769 C 122.988 120.126,122.268 119.600,122.031 119.600 C 121.794 119.600,121.600 119.169,121.600 118.643 C 121.600 118.116,121.330 117.582,121.000 117.455 C 120.670 117.329,120.400 116.949,120.400 116.613 C 120.400 115.806,119.354 115.822,119.043 116.633 " stroke="none" fill="#7c7c7c" fill-rule="evenodd"></path><path id="path3" d="M111.600 112.024 C 111.600 112.257,111.435 112.345,111.234 112.221 C 111.033 112.097,110.808 112.175,110.734 112.394 C 110.660 112.614,110.118 112.833,109.529 112.881 C 108.940 112.930,108.553 113.124,108.669 113.312 C 108.785 113.500,108.502 113.753,108.040 113.874 C 107.578 113.994,107.200 114.342,107.200 114.647 C 107.200 115.129,106.444 115.396,105.500 115.247 C 105.335 115.221,105.221 115.335,105.247 115.500 C 105.400 116.469,105.122 117.200,104.600 117.200 C 104.270 117.200,104.000 117.470,104.000 117.800 C 104.000 118.200,103.600 118.400,102.800 118.400 C 102.140 118.400,101.600 118.566,101.600 118.769 C 101.600 119.250,99.250 121.600,98.769 121.600 C 98.566 121.600,98.400 121.773,98.400 121.985 C 98.400 122.750,94.858 126.000,94.023 126.000 C 93.557 126.000,93.071 126.270,92.945 126.600 C 92.818 126.930,92.464 127.200,92.157 127.200 C 91.851 127.200,91.600 127.394,91.600 127.632 C 91.600 128.194,88.194 131.600,87.632 131.600 C 87.394 131.600,87.200 131.870,87.200 132.200 C 87.200 132.536,86.843 132.800,86.387 132.800 C 85.941 132.800,85.471 133.070,85.345 133.400 C 85.218 133.730,84.864 134.000,84.557 134.000 C 84.251 134.000,84.000 134.270,84.000 134.600 C 84.000 134.930,83.806 135.200,83.568 135.200 C 83.006 135.200,79.600 138.606,79.600 139.168 C 79.600 139.406,79.396 139.600,79.146 139.600 C 78.896 139.600,78.275 140.050,77.765 140.600 C 77.255 141.150,76.470 141.600,76.019 141.600 C 75.558 141.600,75.200 141.862,75.200 142.200 C 75.200 142.530,74.930 142.800,74.600 142.800 C 74.270 142.800,74.000 143.070,74.000 143.400 C 74.000 143.730,73.730 144.000,73.400 144.000 C 73.070 144.000,72.800 144.270,72.800 144.600 C 72.800 144.930,72.530 145.200,72.200 145.200 C 71.870 145.200,71.600 145.340,71.600 145.511 C 71.600 146.000,69.293 148.400,68.823 148.400 C 68.590 148.400,68.392 148.625,68.383 148.900 C 68.374 149.175,67.834 149.842,67.183 150.381 C 66.532 150.921,66.000 151.686,66.000 152.081 C 66.000 152.477,65.820 152.800,65.600 152.800 C 65.354 152.800,65.200 154.780,65.200 157.939 C 65.200 163.449,65.574 164.890,67.468 166.681 C 67.981 167.165,68.400 167.750,68.400 167.981 C 68.400 168.211,68.599 168.400,68.842 168.400 C 69.086 168.400,69.639 168.850,70.071 169.400 C 70.525 169.976,71.270 170.400,71.829 170.400 C 72.425 170.400,72.800 170.631,72.800 171.000 C 72.800 171.513,73.933 171.600,80.600 171.600 C 87.267 171.600,88.400 171.687,88.400 172.200 C 88.400 172.718,89.861 172.800,99.151 172.800 C 108.220 172.800,109.980 172.894,110.400 173.400 C 110.813 173.897,112.292 174.000,119.049 174.000 C 124.216 174.000,127.200 174.146,127.200 174.400 C 127.200 175.840,144.997 174.649,146.017 173.141 C 146.137 172.965,146.664 172.755,147.190 172.674 C 147.715 172.594,148.279 172.185,148.444 171.764 C 148.609 171.344,148.756 171.173,148.772 171.385 C 148.820 172.041,150.400 168.674,150.400 167.915 C 150.400 167.522,150.670 167.200,151.000 167.200 C 151.495 167.200,151.600 166.470,151.600 163.033 C 151.600 158.740,151.387 157.437,150.748 157.832 C 150.546 157.957,150.424 157.911,150.477 157.730 C 150.756 156.780,149.002 154.000,148.123 154.000 C 147.569 154.000,147.200 153.760,147.200 153.400 C 147.200 153.070,146.930 152.800,146.600 152.800 C 146.270 152.800,146.000 152.530,146.000 152.200 C 146.000 151.848,145.628 151.595,145.100 151.587 C 144.605 151.580,143.851 151.310,143.424 150.987 C 142.839 150.545,141.436 150.400,137.747 150.400 C 134.912 150.400,132.743 150.231,132.600 150.000 C 132.445 149.749,128.277 149.600,121.419 149.600 C 112.272 149.600,110.449 149.506,110.265 149.024 C 110.134 148.683,109.366 148.398,108.379 148.324 L 106.715 148.200 107.738 147.100 C 108.301 146.495,109.186 146.000,109.705 146.000 C 111.312 146.000,115.973 140.053,116.599 137.203 C 116.766 136.446,117.051 135.550,117.233 135.213 C 118.339 133.169,118.800 129.757,118.800 123.612 C 118.800 119.889,118.977 116.817,119.217 116.368 C 119.540 115.764,119.495 115.535,119.017 115.351 C 118.678 115.221,118.400 114.754,118.400 114.314 C 118.400 112.613,116.813 111.614,114.100 111.607 C 112.603 111.603,111.600 111.770,111.600 112.024 M327.684 199.815 C 327.122 200.453,327.603 200.637,328.220 200.020 C 328.429 199.812,329.860 199.577,331.400 199.499 L 334.200 199.357 331.200 199.294 C 329.008 199.247,328.061 199.388,327.684 199.815 M309.301 232.600 C 309.305 233.480,309.387 233.793,309.483 233.295 C 309.579 232.798,309.575 232.078,309.475 231.695 C 309.375 231.313,309.296 231.720,309.301 232.600 M319.293 300.400 C 319.293 301.170,319.375 301.485,319.476 301.100 C 319.576 300.715,319.576 300.085,319.476 299.700 C 319.375 299.315,319.293 299.630,319.293 300.400 M290.501 318.600 C 290.505 319.480,290.587 319.793,290.683 319.295 C 290.779 318.798,290.775 318.078,290.675 317.695 C 290.575 317.313,290.496 317.720,290.501 318.600 " stroke="none" fill="#949494" fill-rule="evenodd"></path><path id="path4" d="M248.400 97.800 C 248.400 98.261,247.889 98.400,246.200 98.400 C 244.511 98.400,244.000 98.539,244.000 99.000 C 244.000 99.461,243.489 99.600,241.800 99.600 C 240.590 99.600,239.600 99.780,239.600 100.000 C 239.600 100.220,238.694 100.400,237.587 100.400 C 236.168 100.400,235.507 100.577,235.345 101.000 C 235.176 101.439,234.484 101.600,232.757 101.600 C 230.929 101.600,230.400 101.735,230.400 102.200 C 230.400 102.631,229.959 102.800,228.833 102.800 C 226.980 102.800,225.918 103.143,226.226 103.642 C 226.348 103.839,225.627 104.000,224.624 104.000 C 223.269 104.000,222.800 104.154,222.800 104.600 C 222.800 105.059,222.293 105.200,220.633 105.200 C 219.442 105.200,218.407 105.370,218.333 105.578 C 218.260 105.785,217.083 105.995,215.718 106.043 C 214.081 106.100,213.166 106.312,213.030 106.665 C 212.906 106.989,212.190 107.200,211.213 107.200 C 210.046 107.200,209.600 107.366,209.600 107.800 C 209.600 108.244,209.133 108.400,207.800 108.400 C 206.467 108.400,206.000 108.556,206.000 109.000 C 206.000 109.470,205.453 109.600,203.480 109.600 C 202.094 109.600,200.789 109.770,200.580 109.978 C 200.371 110.185,199.351 110.399,198.314 110.452 C 197.202 110.508,196.346 110.764,196.227 111.074 C 196.094 111.421,195.272 111.600,193.813 111.600 C 192.113 111.600,191.600 111.739,191.600 112.200 C 191.600 112.633,191.156 112.800,190.000 112.800 C 188.844 112.800,188.400 112.967,188.400 113.400 C 188.400 113.861,187.889 114.000,186.200 114.000 C 184.511 114.000,184.000 114.139,184.000 114.600 C 184.000 115.061,183.489 115.200,181.800 115.200 C 180.590 115.200,179.600 115.380,179.600 115.600 C 179.600 115.820,178.610 116.000,177.400 116.000 C 175.711 116.000,175.200 116.139,175.200 116.600 C 175.200 117.044,174.733 117.200,173.400 117.200 C 172.067 117.200,171.600 117.356,171.600 117.800 C 171.600 118.173,171.222 118.400,170.600 118.400 C 169.978 118.400,169.600 118.627,169.600 119.000 C 169.600 119.330,169.405 119.600,169.167 119.600 C 168.077 119.600,166.200 122.217,166.151 123.804 C 166.124 124.682,165.793 126.570,165.416 128.000 C 165.038 129.430,164.584 132.040,164.407 133.800 C 164.229 135.560,163.885 137.507,163.642 138.126 C 163.173 139.320,163.046 144.786,163.452 146.300 C 163.814 147.649,164.800 147.430,164.800 146.000 C 164.800 144.933,164.933 144.800,166.000 144.800 C 166.660 144.800,167.200 144.620,167.200 144.400 C 167.200 144.180,168.190 144.000,169.400 144.000 C 171.089 144.000,171.600 143.861,171.600 143.400 C 171.600 142.967,172.044 142.800,173.200 142.800 C 174.356 142.800,174.800 142.633,174.800 142.200 C 174.800 141.724,175.378 141.600,177.600 141.600 C 179.822 141.600,180.400 141.476,180.400 141.000 C 180.400 140.557,180.863 140.400,182.167 140.400 C 183.138 140.400,183.993 140.226,184.067 140.013 C 184.140 139.800,185.346 139.582,186.746 139.527 C 188.372 139.464,189.362 139.242,189.488 138.914 C 189.602 138.617,190.343 138.400,191.243 138.400 C 192.360 138.400,192.800 138.231,192.800 137.800 C 192.800 137.339,193.311 137.200,195.000 137.200 C 196.689 137.200,197.200 137.061,197.200 136.600 C 197.200 136.139,197.711 136.000,199.400 136.000 C 201.089 136.000,201.600 135.861,201.600 135.400 C 201.600 134.939,202.111 134.800,203.800 134.800 C 205.010 134.800,206.000 134.620,206.000 134.400 C 206.000 134.180,206.810 134.000,207.800 134.000 C 209.133 134.000,209.600 133.844,209.600 133.400 C 209.600 132.933,210.135 132.800,212.013 132.800 C 213.788 132.800,214.486 132.642,214.655 132.200 C 214.821 131.769,215.496 131.600,217.055 131.600 C 218.615 131.600,219.290 131.431,219.455 131.000 C 219.616 130.581,220.269 130.400,221.619 130.400 C 222.683 130.400,223.664 130.220,223.800 130.000 C 223.936 129.780,224.672 129.600,225.436 129.600 C 226.302 129.600,226.912 129.374,227.055 129.000 C 227.221 128.569,227.894 128.400,229.443 128.400 C 231.094 128.400,231.600 128.259,231.600 127.800 C 231.600 127.339,232.111 127.200,233.800 127.200 C 235.489 127.200,236.000 127.061,236.000 126.600 C 236.000 126.139,236.511 126.000,238.200 126.000 C 239.889 126.000,240.400 125.861,240.400 125.400 C 240.400 124.956,240.867 124.800,242.200 124.800 C 243.190 124.800,244.000 124.620,244.000 124.400 C 244.000 124.180,244.990 124.000,246.200 124.000 C 247.889 124.000,248.400 123.861,248.400 123.400 C 248.400 122.928,248.957 122.800,251.013 122.800 C 252.966 122.800,253.683 122.649,253.855 122.200 C 254.005 121.809,254.628 121.600,255.643 121.600 C 256.760 121.600,257.200 121.431,257.200 121.000 C 257.200 120.600,257.600 120.400,258.400 120.400 C 259.060 120.400,259.600 120.220,259.600 120.000 C 259.600 119.780,259.966 119.600,260.413 119.600 C 260.859 119.600,261.329 119.330,261.455 119.000 C 261.582 118.670,261.936 118.400,262.243 118.400 C 262.549 118.400,262.800 118.130,262.800 117.800 C 262.800 117.470,263.070 117.200,263.400 117.200 C 263.730 117.200,264.000 116.930,264.000 116.600 C 264.000 116.270,264.180 116.000,264.400 116.000 C 264.620 116.000,264.800 115.550,264.800 115.000 C 264.800 114.378,265.027 114.000,265.400 114.000 C 265.897 114.000,266.000 113.244,266.000 109.600 C 266.000 105.956,265.897 105.200,265.400 105.200 C 264.958 105.200,264.800 104.738,264.800 103.443 C 264.800 102.292,264.604 101.610,264.231 101.467 C 263.883 101.334,263.746 100.929,263.878 100.424 C 264.061 99.722,263.909 99.600,262.847 99.600 C 262.005 99.600,261.600 99.405,261.600 99.000 C 261.600 98.634,261.227 98.400,260.643 98.400 C 260.116 98.400,259.582 98.130,259.455 97.800 C 259.266 97.308,258.255 97.200,253.813 97.200 C 249.268 97.200,248.400 97.296,248.400 97.800 M151.463 213.100 C 151.361 213.265,151.144 214.300,150.980 215.400 C 150.652 217.606,150.300 218.261,147.507 221.854 C 146.458 223.203,145.600 224.479,145.600 224.689 C 145.600 225.929,138.943 230.000,136.915 230.000 C 136.500 230.000,135.967 230.193,135.731 230.429 C 135.494 230.666,132.845 230.999,129.844 231.169 C 126.843 231.340,124.282 231.585,124.153 231.713 C 123.790 232.077,124.381 232.800,125.043 232.800 C 125.370 232.800,126.055 233.250,126.565 233.800 C 127.075 234.350,127.696 234.800,127.946 234.800 C 128.196 234.800,128.400 235.070,128.400 235.400 C 128.400 235.730,128.670 236.000,129.000 236.000 C 129.330 236.000,129.600 236.270,129.600 236.600 C 129.600 236.930,129.780 237.200,130.000 237.200 C 130.220 237.200,130.400 237.610,130.400 238.111 C 130.400 239.004,131.623 240.400,132.405 240.400 C 132.622 240.400,132.800 240.670,132.800 241.000 C 132.800 241.330,133.070 241.600,133.400 241.600 C 133.730 241.600,134.000 241.870,134.000 242.200 C 134.000 242.530,134.270 242.800,134.600 242.800 C 134.973 242.800,135.200 243.178,135.200 243.800 C 135.200 244.350,135.380 244.800,135.600 244.800 C 135.820 244.800,136.000 245.070,136.000 245.400 C 136.000 245.730,136.270 246.000,136.600 246.000 C 136.930 246.000,137.200 246.270,137.200 246.600 C 137.200 246.930,137.470 247.200,137.800 247.200 C 138.130 247.200,138.400 247.470,138.400 247.800 C 138.400 248.130,138.670 248.400,139.000 248.400 C 139.346 248.400,139.600 248.762,139.600 249.254 C 139.600 249.724,140.050 250.525,140.600 251.035 C 141.150 251.545,141.600 252.150,141.600 252.381 C 141.600 252.611,141.870 252.800,142.200 252.800 C 142.530 252.800,142.800 253.070,142.800 253.400 C 142.800 253.730,143.070 254.000,143.400 254.000 C 143.773 254.000,144.000 254.378,144.000 255.000 C 144.000 255.622,144.227 256.000,144.600 256.000 C 144.930 256.000,145.200 256.194,145.200 256.432 C 145.200 256.994,148.606 260.400,149.168 260.400 C 149.406 260.400,149.600 260.940,149.600 261.600 C 149.600 262.260,149.780 262.800,150.000 262.800 C 150.220 262.800,150.400 263.070,150.400 263.400 C 150.400 263.730,150.670 264.000,151.000 264.000 C 151.330 264.000,151.600 264.180,151.600 264.400 C 151.600 264.620,151.870 264.800,152.200 264.800 C 152.712 264.800,152.800 265.889,152.800 272.200 C 152.800 278.511,152.712 279.600,152.200 279.600 C 151.696 279.600,151.600 280.463,151.600 284.971 C 151.600 288.925,151.459 290.484,151.065 290.878 C 150.672 291.271,150.505 293.066,150.439 297.607 C 150.390 301.013,150.181 303.971,149.975 304.180 C 149.767 304.391,149.600 308.093,149.600 312.480 C 149.600 319.253,149.513 320.400,149.000 320.400 C 148.481 320.400,148.400 321.911,148.400 331.600 C 148.400 341.289,148.481 342.800,149.000 342.800 C 149.373 342.800,149.600 343.178,149.600 343.800 C 149.600 344.350,149.780 344.800,150.000 344.800 C 150.220 344.800,150.400 345.256,150.400 345.813 C 150.400 346.369,150.670 346.929,151.000 347.055 C 151.330 347.182,151.600 347.536,151.600 347.843 C 151.600 348.149,151.789 348.400,152.019 348.400 C 152.250 348.400,152.855 348.850,153.365 349.400 C 153.875 349.950,154.676 350.400,155.146 350.400 C 155.638 350.400,156.000 350.654,156.000 351.000 C 156.000 351.400,156.400 351.600,157.200 351.600 C 158.000 351.600,158.400 351.800,158.400 352.200 C 158.400 352.667,158.936 352.800,160.824 352.800 C 162.157 352.800,163.149 352.960,163.028 353.155 C 162.908 353.350,163.212 353.617,163.704 353.749 C 165.205 354.151,166.000 354.030,166.000 353.400 C 166.000 352.939,166.511 352.800,168.200 352.800 C 169.889 352.800,170.400 352.661,170.400 352.200 C 170.400 351.800,170.800 351.600,171.600 351.600 C 172.400 351.600,172.800 351.400,172.800 351.000 C 172.800 350.627,173.178 350.400,173.800 350.400 C 174.350 350.400,174.800 350.220,174.800 350.000 C 174.800 349.780,175.070 349.600,175.400 349.600 C 175.730 349.600,176.000 349.330,176.000 349.000 C 176.000 348.670,176.270 348.400,176.600 348.400 C 176.930 348.400,177.200 348.130,177.200 347.800 C 177.200 347.470,177.470 347.200,177.800 347.200 C 178.130 347.200,178.400 346.930,178.400 346.600 C 178.400 346.270,178.670 346.000,179.000 346.000 C 179.373 346.000,179.600 345.622,179.600 345.000 C 179.600 344.450,179.780 344.000,180.000 344.000 C 180.229 344.000,180.400 342.800,180.400 341.200 C 180.400 339.001,180.526 338.400,180.989 338.400 C 181.475 338.400,181.597 337.403,181.689 332.700 C 181.773 328.400,181.923 327.025,182.300 327.100 C 182.685 327.177,182.800 325.555,182.800 320.043 C 182.800 314.050,182.898 312.848,183.400 312.655 C 183.904 312.462,184.000 311.213,184.000 304.836 C 184.000 300.208,184.156 297.151,184.400 297.000 C 184.646 296.848,184.800 293.596,184.800 288.576 C 184.800 281.575,184.886 280.400,185.400 280.400 C 185.904 280.400,186.000 279.533,186.000 275.000 C 186.000 270.467,186.096 269.600,186.600 269.600 C 187.110 269.600,187.200 268.578,187.200 262.800 C 187.200 257.022,187.110 256.000,186.600 256.000 C 186.167 256.000,186.000 255.556,186.000 254.400 C 186.000 253.244,185.833 252.800,185.400 252.800 C 185.070 252.800,184.800 252.530,184.800 252.200 C 184.800 251.870,184.620 251.600,184.400 251.600 C 184.180 251.600,184.000 251.150,184.000 250.600 C 184.000 249.978,183.773 249.600,183.400 249.600 C 183.070 249.600,182.800 249.330,182.800 249.000 C 182.800 248.670,182.530 248.400,182.200 248.400 C 181.870 248.400,181.600 248.130,181.600 247.800 C 181.600 247.470,181.330 247.200,181.000 247.200 C 180.627 247.200,180.400 246.822,180.400 246.200 C 180.400 245.650,180.220 245.200,180.000 245.200 C 179.780 245.200,179.600 244.930,179.600 244.600 C 179.600 244.270,179.330 244.000,179.000 244.000 C 178.670 244.000,178.400 243.730,178.400 243.400 C 178.400 243.070,178.130 242.800,177.800 242.800 C 177.470 242.800,177.200 242.530,177.200 242.200 C 177.200 241.870,176.930 241.600,176.600 241.600 C 176.264 241.600,176.000 241.243,176.000 240.787 C 176.000 240.341,175.730 239.871,175.400 239.745 C 175.070 239.618,174.800 239.264,174.800 238.957 C 174.800 238.651,174.620 238.400,174.400 238.400 C 174.180 238.400,174.000 238.130,174.000 237.800 C 174.000 237.470,173.730 237.200,173.400 237.200 C 173.070 237.200,172.800 236.930,172.800 236.600 C 172.800 236.270,172.530 236.000,172.200 236.000 C 171.870 236.000,171.600 235.820,171.600 235.600 C 171.600 235.380,171.330 235.200,171.000 235.200 C 170.600 235.200,170.400 234.800,170.400 234.000 C 170.400 233.340,170.220 232.800,170.000 232.800 C 169.780 232.800,169.600 232.530,169.600 232.200 C 169.600 231.870,169.330 231.600,169.000 231.600 C 168.670 231.600,168.400 231.330,168.400 231.000 C 168.400 230.670,168.130 230.400,167.800 230.400 C 167.470 230.400,167.200 230.220,167.200 230.000 C 167.200 229.780,166.930 229.600,166.600 229.600 C 166.200 229.600,166.000 229.200,166.000 228.400 C 166.000 227.600,165.800 227.200,165.400 227.200 C 165.070 227.200,164.800 227.007,164.800 226.771 C 164.800 226.218,163.782 225.200,163.229 225.200 C 162.993 225.200,162.800 224.930,162.800 224.600 C 162.800 224.270,162.530 224.000,162.200 224.000 C 161.800 224.000,161.600 223.600,161.600 222.800 C 161.600 222.000,161.400 221.600,161.000 221.600 C 160.670 221.600,160.400 221.407,160.400 221.171 C 160.400 220.618,159.382 219.600,158.829 219.600 C 158.593 219.600,158.400 219.330,158.400 219.000 C 158.400 218.670,158.130 218.400,157.800 218.400 C 157.400 218.400,157.200 218.000,157.200 217.200 C 157.200 216.400,157.000 216.000,156.600 216.000 C 156.270 216.000,156.000 215.820,156.000 215.600 C 156.000 215.380,155.730 215.200,155.400 215.200 C 155.070 215.200,154.800 214.930,154.800 214.600 C 154.800 214.270,154.620 214.000,154.400 214.000 C 154.180 214.000,154.000 213.730,154.000 213.400 C 154.000 212.774,151.822 212.517,151.463 213.100 " stroke="none" fill="#646464" fill-rule="evenodd"></path><path id="path5" d="M284.406 103.589 C 284.036 104.280,284.092 104.400,284.786 104.400 C 285.234 104.400,285.600 104.141,285.600 103.824 C 285.600 102.867,284.869 102.723,284.406 103.589 M284.000 109.600 C 284.000 110.510,285.003 110.690,285.330 109.839 C 285.581 109.185,285.286 108.800,284.533 108.800 C 284.240 108.800,284.000 109.160,284.000 109.600 M333.619 143.700 C 333.418 144.195,332.962 145.680,332.605 147.000 C 332.248 148.320,331.751 150.030,331.501 150.800 C 331.251 151.570,330.911 153.100,330.746 154.200 C 330.186 157.918,328.452 164.113,326.883 168.000 C 325.946 170.322,325.270 173.181,325.474 173.961 C 325.799 175.206,326.191 174.978,326.266 173.500 C 326.369 171.481,326.857 169.477,327.455 168.611 C 327.755 168.177,328.006 167.457,328.013 167.011 C 328.020 166.565,328.290 165.851,328.613 165.424 C 328.936 164.996,329.200 164.152,329.200 163.547 C 329.200 162.942,329.370 162.342,329.577 162.214 C 329.784 162.086,330.067 161.131,330.204 160.091 C 330.342 159.051,330.612 157.840,330.805 157.400 C 330.998 156.960,331.272 155.655,331.415 154.500 C 331.558 153.346,331.838 152.300,332.037 152.177 C 332.237 152.054,332.400 151.445,332.400 150.825 C 332.400 150.205,332.670 149.051,333.000 148.262 C 333.330 147.472,333.600 146.389,333.600 145.856 C 333.600 145.322,333.870 144.782,334.200 144.655 C 334.869 144.399,335.033 142.800,334.391 142.800 C 334.167 142.800,333.819 143.205,333.619 143.700 M324.643 175.833 C 324.509 176.181,324.400 176.925,324.400 177.487 L 324.400 178.508 325.200 177.491 C 325.640 176.931,326.000 176.187,326.000 175.837 C 326.000 175.012,324.959 175.009,324.643 175.833 M247.200 198.904 C 247.200 199.255,246.885 199.624,246.500 199.724 C 245.844 199.896,245.845 199.910,246.513 199.954 C 247.236 200.001,247.906 198.973,247.449 198.516 C 247.312 198.379,247.200 198.553,247.200 198.904 M242.000 212.600 C 242.000 212.930,242.270 213.200,242.600 213.200 C 242.930 213.200,243.200 212.930,243.200 212.600 C 243.200 212.270,242.930 212.000,242.600 212.000 C 242.270 212.000,242.000 212.270,242.000 212.600 M312.538 216.217 C 312.408 216.557,312.406 216.939,312.533 217.067 C 312.937 217.470,314.000 216.851,314.000 216.213 C 314.000 215.414,312.845 215.418,312.538 216.217 M239.600 219.013 C 239.600 219.336,239.870 219.600,240.200 219.600 C 240.530 219.600,240.800 219.439,240.800 219.243 C 240.800 219.046,240.530 218.782,240.200 218.655 C 239.835 218.515,239.600 218.655,239.600 219.013 M310.189 223.617 C 310.059 223.828,310.064 224.180,310.200 224.400 C 310.570 224.998,311.600 224.882,311.600 224.243 C 311.600 223.565,310.518 223.085,310.189 223.617 M308.400 230.233 C 307.850 230.539,306.487 230.791,305.371 230.794 C 304.255 230.797,302.545 231.066,301.571 231.390 C 300.038 231.901,287.741 232.932,284.200 232.847 C 283.540 232.831,281.252 232.769,279.115 232.709 C 275.736 232.614,275.136 232.699,274.515 233.357 C 273.826 234.086,273.829 234.103,274.600 233.823 C 275.040 233.664,280.080 233.460,285.800 233.370 C 291.520 233.280,296.829 233.025,297.597 232.803 C 298.366 232.581,299.593 232.400,300.324 232.400 C 301.055 232.400,301.977 232.226,302.374 232.014 C 302.771 231.801,304.560 231.505,306.348 231.356 C 309.152 231.122,309.600 230.983,309.600 230.342 C 309.600 229.934,309.555 229.618,309.500 229.639 C 309.445 229.661,308.950 229.928,308.400 230.233 M267.500 242.276 C 267.115 242.376,266.800 242.609,266.800 242.792 C 266.800 242.975,267.160 243.031,267.600 242.916 C 268.040 242.801,268.400 242.548,268.400 242.353 C 268.400 242.159,268.355 242.021,268.300 242.046 C 268.245 242.072,267.885 242.175,267.500 242.276 M231.867 243.067 C 231.406 243.527,231.575 244.000,232.200 244.000 C 232.530 244.000,232.800 243.730,232.800 243.400 C 232.800 242.775,232.327 242.606,231.867 243.067 M230.655 247.000 C 230.499 247.408,230.677 247.600,231.213 247.600 C 231.646 247.600,232.000 247.330,232.000 247.000 C 232.000 246.670,231.749 246.400,231.443 246.400 C 231.136 246.400,230.782 246.670,230.655 247.000 M226.270 260.161 C 226.152 260.469,226.150 260.817,226.267 260.933 C 226.634 261.301,227.600 260.738,227.600 260.157 C 227.600 259.431,226.549 259.434,226.270 260.161 M259.050 265.919 C 258.796 266.330,259.258 266.972,259.900 267.100 C 260.175 267.155,260.400 266.840,260.400 266.400 C 260.400 265.621,259.445 265.281,259.050 265.919 M225.381 298.904 C 225.038 299.799,225.319 301.418,225.800 301.312 C 226.020 301.264,226.259 300.747,226.331 300.164 C 226.488 298.899,225.756 297.928,225.381 298.904 M225.200 310.000 C 225.200 310.220,225.380 310.400,225.600 310.400 C 225.841 310.400,226.000 312.075,226.000 314.624 C 226.000 317.896,225.887 318.780,225.500 318.547 C 225.128 318.323,225.133 318.411,225.522 318.890 C 226.089 319.591,226.138 326.000,225.576 326.000 C 225.405 326.000,225.245 328.970,225.220 332.600 C 225.183 338.051,225.274 339.200,225.742 339.200 C 226.581 339.200,226.749 337.384,226.611 329.800 C 226.542 326.060,226.467 319.985,226.443 316.300 C 226.407 310.630,226.308 309.600,225.800 309.600 C 225.470 309.600,225.200 309.780,225.200 310.000 M328.579 323.166 C 328.703 323.367,328.579 323.623,328.302 323.734 C 328.026 323.846,328.227 323.951,328.749 323.968 C 329.548 323.995,329.619 323.905,329.200 323.400 C 328.656 322.745,328.216 322.579,328.579 323.166 M297.404 335.993 C 297.109 336.471,297.483 337.200,298.024 337.200 C 298.510 337.200,298.513 336.117,298.028 335.817 C 297.823 335.691,297.542 335.770,297.404 335.993 M225.456 339.878 C 224.961 340.372,225.207 341.600,225.800 341.600 C 226.130 341.600,226.400 341.251,226.400 340.824 C 226.400 339.989,225.873 339.461,225.456 339.878 M305.200 349.800 C 305.200 350.130,305.470 350.400,305.800 350.400 C 306.130 350.400,306.400 350.130,306.400 349.800 C 306.400 349.470,306.130 349.200,305.800 349.200 C 305.470 349.200,305.200 349.470,305.200 349.800 M314.231 352.703 C 313.685 353.248,314.892 353.945,315.790 353.604 C 316.300 353.410,316.826 353.360,316.959 353.492 C 317.091 353.625,317.200 353.504,317.200 353.224 C 317.200 352.944,316.948 352.811,316.639 352.930 C 316.331 353.048,315.965 353.032,315.828 352.894 C 315.482 352.549,314.502 352.431,314.231 352.703 " stroke="none" fill="#b0b0b0" fill-rule="evenodd"></path></g></svg>