<?xml version="1.0" encoding="UTF-8" standalone="no"?>
<!-- Created with Inkscape (http://www.inkscape.org/) -->

<svg
   width="128"
   height="128"
   viewBox="0 0 128 128"
   version="1.1"
   id="svg1"
   xml:space="preserve"
   inkscape:export-filename="bitmapa22.svg"
   inkscape:export-xdpi="96"
   inkscape:export-ydpi="96"
   xmlns:inkscape="http://www.inkscape.org/namespaces/inkscape"
   xmlns:sodipodi="http://sodipodi.sourceforge.net/DTD/sodipodi-0.dtd"
   xmlns="http://www.w3.org/2000/svg"
   xmlns:svg="http://www.w3.org/2000/svg"><sodipodi:namedview
     id="namedview1"
     pagecolor="#000000"
     bordercolor="#000000"
     borderopacity="0.25"
     inkscape:showpageshadow="2"
     inkscape:pageopacity="0.0"
     inkscape:pagecheckerboard="false"
     inkscape:deskcolor="#d1d1d1"
     inkscape:document-units="px"
     showborder="false"><inkscape:page
       x="0"
       y="0"
       width="128"
       height="128"
       id="page2"
       margin="0"
       bleed="0" /></sodipodi:namedview><defs
     id="defs1" /><g
     inkscape:label="Warstwa 1"
     inkscape:groupmode="layer"
     id="layer1"
     transform="translate(3)"><path
       style="fill:#ffffff"
       d="m 5.0715209,117.39635 c -3.41099,-3.41098 -3.41099,-9.67992 0,-13.0909 l 2.45454,-2.45455 H 61.616971 115.70788 l 2.45454,2.45455 c 3.41099,3.41098 3.41099,9.67992 0,13.0909 l -2.45454,2.45455 H 61.616971 7.5260609 Z M 17.524801,99.531061 c -1.97569,-0.73478 -5.57569,-2.66457 -8.0000001,-4.28842 -3.46781,-2.322807 -4.47477,-3.640547 -4.7217,-6.178977 -0.45333,-4.66014 1.84941,-5.01035 7.5297301,-1.14515 4.09199,2.78441 5.87433,3.32115 12.31949,3.70995 7.05737,0.42572 7.73925,0.28298 10.75,-2.2504 l 3.21465,-2.70495 v -12.05158 c 0,-10.238943 0.31566,-12.683611 2.09869,-16.253794 5.23803,-10.488145 15.11665,-9.903629 20.56154,1.216623 2.44996,5.003621 2.82459,6.941204 2.83164,14.645311 0.007,7.49102 -0.27455,9.05403 -1.80044,10 -2.41749,1.49873 -4.79995,-1.57317 -4.07328,-5.25201 0.28538,-1.44472 0.0482,-5.53137 -0.52704,-9.081432 -1.32742,-8.192069 -4.51588,-11.985392 -8.80607,-10.476615 -1.52108,0.534937 -2.91548,1.750814 -3.09865,2.701948 -0.27616,1.433993 0.442,1.729335 4.2051,1.729335 5.81378,0 6.60851,1.428374 6.60851,11.877554 0,7.14269 0.24041,8.17743 2.22251,9.56574 2.77989,1.94712 3.25055,1.94079 5.2621,-0.0708 1.30922,-1.30922 1.58872,-3.50909 1.42935,-11.25 l -0.19811,-9.622534 4.89208,-0.596769 c 2.69064,-0.328224 8.04207,-1.144604 11.89207,-1.81418 13.74369,-2.390242 35.158209,2.107977 36.952759,7.762097 0.61817,1.947686 -0.7119,6.576606 -2.14108,7.451406 -0.44642,0.27325 -5.08668,-0.57167 -10.31168,-1.8776 -9.262099,-2.31497 -19.094449,-2.9127 -25.499999,-1.55021 -4.19439,0.89217 -4.54507,4.40719 -0.83369,8.35634 6.20034,6.59757 15.54024,7.65755 24.756359,2.80959 6.19595,-3.25926 8.2735,-3.09942 9.22962,0.71006 1.16899,4.65763 -0.76656,7.48828 -7.50592,10.977027 -5.22562,2.70513 -7.439379,3.27224 -12.773579,3.27224 -7.35645,0 -12.00145,-1.92444 -18.04727,-7.477017 l -3.82552,-3.51343 -13.72432,-0.005 -13.72432,-0.005 -1.52463,2.9483 c -0.83854,1.62157 -3.16294,4.197907 -5.16532,5.725197 -2.98965,2.28032 -4.8228,2.827479 -10.25106,3.059769 -3.77666,0.16161 -8.15022,-0.28983 -10.20252,-1.053109 z m 2.59217,-13.625517 c -4.0015,-1.63778 -6,-5.01421 -6,-10.1369 0,-6.138099 3.18859,-9.798032 9.24376,-10.610201 7.4262,-0.996062 12.25624,3.660658 12.25624,11.816431 0,7.56629 -7.82211,12.07317 -15.5,8.93067 z m 77.5,-44.987256 c 0,-3.717785 -2.89344,-4.83854 -6.45942,-2.502018 -2.0568,1.347668 -2.84002,1.431007 -4.04559,0.430475 -1.91343,-1.588012 -1.88888,-2.903121 0.0951,-5.095441 2.41843,-2.67233 0.96452,-5.900404 -2.65752,-5.900404 -2.59179,0 -2.93261,-0.348652 -2.93261,-3 0,-2.651348 0.34082,-3 2.93261,-3 3.62204,0 5.07595,-3.228074 2.65752,-5.900404 -1.98402,-2.19232 -2.00857,-3.507429 -0.0951,-5.095442 1.20557,-1.0005312 1.98879,-0.9171922 4.04559,0.430476 3.56598,2.336522 6.45942,1.215767 6.45942,-2.5020182 0,-2.591791 0.34865,-2.932612 2.999999,-2.932612 2.65135,0 3,0.340821 3,2.932612 0,3.6220332 3.22807,5.0759462 5.9004,2.6575202 2.19232,-1.9840222 3.50743,-2.0085772 5.09545,-0.09514 1.00053,1.205567 0.91719,1.988783 -0.43048,4.045584 -2.33652,3.565984 -1.21577,6.459423 2.50202,6.459423 2.59179,0 2.93261,0.348652 2.93261,3 0,2.651348 -0.34082,3 -2.93261,3 -3.71779,0 -4.83854,2.893439 -2.50202,6.459423 1.34767,2.056801 1.43101,2.840017 0.43048,4.045583 -1.58802,1.913438 -2.90313,1.888883 -5.09545,-0.09514 -2.67233,-2.418424 -5.9004,-0.964511 -5.9004,2.657522 0,2.591791 -0.34865,2.932612 -3,2.932612 -2.651349,0 -2.999999,-0.340821 -2.999999,-2.932612 z m 9.388019,-7.951697 c 1.0384,-0.88863 2.50694,-3.078191 3.26342,-4.865691 1.17448,-2.775241 1.16652,-3.749917 -0.0545,-6.672219 -3.06786,-7.34241 -11.472069,-9.164201 -16.959859,-3.67641 -9.07774,9.077745 4.00588,23.553751 13.750929,15.21432 z M 95.271961,30.022159 c -2.2366,-2.471416 -2.13825,-8.423936 0.17375,-10.516271 2.51611,-2.277045 7.725919,-2.100326 10.171259,0.345012 2.55355,2.553554 2.64547,8.105881 0.17126,10.345012 -2.47142,2.236602 -8.423939,2.138252 -10.516269,-0.173753 z M 104.41697,28.6509 c 0.66,-0.66 1.2,-2.37 1.2,-3.8 0,-1.43 -0.54,-3.14 -1.2,-3.8 -1.54692,-1.546918 -6.053079,-1.546918 -7.599999,0 -1.54692,1.546918 -1.54692,6.053082 0,7.6 0.66,0.66 2.37,1.2 3.799999,1.2 1.43,0 3.14,-0.54 3.8,-1.2 z M 1.6169709,21.8509 V 5.8508998 h 3 3 V 21.8509 v 16 h -3 -3 z m 13.0000001,12.5 v -2.5 h 20 20 v 2.5 2.5 h -20 -20 z m 0,-8 v -2.5 h 20 20 v 2.5 2.5 h -20 -20 z m 0,-9 v -2.5 h 20 20 v 2.5 2.5 h -20 -20 z m 0,-9.0000002 v -2.5 h 20 20 v 2.5 2.5000002 h -20 -20 z"
       id="path1" /></g></svg>
