<svg id="svg" version="1.1" xmlns="http://www.w3.org/2000/svg" xmlns:xlink="http://www.w3.org/1999/xlink" width="400" height="400" viewBox="0, 0, 400,400"><g id="svgg"><path id="path0" d="M126.893 200.896 L 126.800 227.593 125.405 228.496 C 124.638 228.993,124.008 229.636,124.005 229.924 C 124.002 230.212,123.820 230.336,123.600 230.200 C 123.380 230.064,123.200 230.323,123.200 230.776 C 123.200 231.264,122.939 231.600,122.560 231.600 C 122.209 231.600,121.417 232.140,120.800 232.800 C 120.183 233.460,119.427 234.000,119.119 234.000 C 118.352 234.000,116.407 234.931,116.403 235.300 C 116.401 235.465,116.028 235.600,115.574 235.600 C 114.667 235.600,113.142 236.302,112.752 236.899 C 112.616 237.107,112.048 237.306,111.491 237.339 C 110.933 237.373,110.544 237.509,110.626 237.642 C 110.830 237.973,108.941 238.800,107.981 238.800 C 107.552 238.800,107.200 238.980,107.200 239.200 C 107.200 239.420,106.516 239.600,105.680 239.600 C 104.844 239.600,103.989 239.771,103.779 239.981 C 103.570 240.190,102.724 240.407,101.899 240.463 C 101.075 240.518,100.400 240.691,100.400 240.848 C 100.400 241.638,83.632 242.293,83.143 241.521 C 82.877 241.102,82.811 241.101,82.806 241.514 C 82.802 241.898,82.604 241.923,82.026 241.614 C 81.601 241.386,79.790 241.200,78.003 241.200 C 75.938 241.200,74.843 241.054,75.000 240.800 C 75.147 240.562,74.679 240.400,73.847 240.400 C 73.077 240.400,72.336 240.220,72.200 240.000 C 72.064 239.780,71.344 239.600,70.600 239.600 C 69.856 239.600,69.136 239.420,69.000 239.200 C 68.864 238.980,68.403 238.800,67.976 238.800 C 67.549 238.800,67.200 238.620,67.200 238.400 C 67.200 238.180,66.570 238.000,65.800 238.000 C 65.030 238.000,64.400 237.854,64.400 237.675 C 64.400 237.496,63.560 237.306,62.533 237.253 C 61.506 237.200,60.336 236.980,59.933 236.764 C 59.530 236.548,59.200 236.489,59.200 236.632 C 59.200 236.775,58.756 236.601,58.214 236.246 C 57.672 235.891,56.907 235.597,56.514 235.594 C 55.907 235.589,55.890 235.530,56.400 235.200 C 56.857 234.905,56.695 234.811,55.724 234.806 C 55.022 234.803,54.336 234.620,54.200 234.400 C 54.064 234.180,53.593 234.000,53.153 234.000 C 52.713 234.000,52.464 233.820,52.600 233.600 C 52.736 233.380,52.492 233.200,52.057 233.200 C 51.622 233.200,51.176 232.975,51.065 232.700 C 50.926 232.357,50.851 232.388,50.825 232.800 C 50.802 233.180,50.680 233.244,50.494 232.974 C 50.067 232.354,46.531 230.000,46.028 230.000 C 45.793 230.000,45.600 229.820,45.600 229.600 C 45.600 229.380,45.403 229.200,45.162 229.200 C 44.921 229.200,44.190 228.820,43.539 228.356 C 42.887 227.892,42.255 227.612,42.134 227.732 C 42.014 227.853,41.537 227.600,41.076 227.170 C 40.614 226.740,40.048 226.456,39.818 226.539 C 39.258 226.742,37.200 225.681,37.200 225.190 C 37.200 224.975,36.840 224.800,36.400 224.800 C 35.960 224.800,35.600 224.620,35.600 224.400 C 35.600 224.180,35.330 224.000,35.000 224.000 C 34.670 224.000,34.400 223.820,34.400 223.600 C 34.400 223.359,32.746 223.200,30.239 223.200 C 25.878 223.200,23.269 224.371,23.168 226.374 C 23.151 226.724,23.054 226.797,22.948 226.539 C 22.830 226.249,22.394 226.442,21.780 227.057 C 20.860 227.977,20.800 228.302,20.800 232.410 L 20.800 236.784 23.647 239.592 C 25.213 241.136,26.587 242.400,26.700 242.400 C 26.814 242.400,27.197 242.729,27.553 243.130 C 27.909 243.532,28.785 244.116,29.500 244.428 C 30.215 244.740,30.800 245.131,30.800 245.298 C 30.800 245.464,31.385 245.603,32.100 245.606 C 33.086 245.611,33.255 245.706,32.800 246.000 C 32.334 246.301,32.451 246.389,33.324 246.394 C 33.970 246.397,34.342 246.570,34.200 246.800 C 34.064 247.020,34.296 247.200,34.714 247.200 C 35.133 247.200,35.802 247.560,36.200 248.000 C 36.598 248.440,37.166 248.800,37.462 248.800 C 37.758 248.800,38.000 248.980,38.000 249.200 C 38.000 249.420,38.360 249.600,38.800 249.600 C 39.240 249.600,39.600 249.780,39.600 250.000 C 39.600 250.220,39.945 250.400,40.367 250.400 C 40.788 250.400,41.196 250.588,41.273 250.818 C 41.349 251.048,41.802 251.265,42.278 251.301 C 42.755 251.337,43.056 251.509,42.949 251.683 C 42.841 251.857,43.033 252.000,43.376 252.000 C 43.719 252.000,44.000 252.180,44.000 252.400 C 44.000 252.620,44.540 252.800,45.200 252.800 C 45.860 252.800,46.400 252.980,46.400 253.200 C 46.400 253.420,46.760 253.600,47.200 253.600 C 47.640 253.600,48.000 253.780,48.000 254.000 C 48.000 254.220,48.461 254.400,49.024 254.400 C 49.587 254.400,49.964 254.535,49.862 254.700 C 49.760 254.865,50.149 255.028,50.726 255.063 C 51.303 255.098,51.841 255.324,51.922 255.566 C 52.002 255.807,52.237 255.901,52.444 255.773 C 52.900 255.491,56.393 256.767,57.129 257.485 C 57.661 258.004,58.667 258.186,60.270 258.052 C 60.748 258.012,61.254 258.164,61.394 258.390 C 61.533 258.615,62.076 258.800,62.600 258.800 C 63.124 258.800,63.664 258.980,63.800 259.200 C 63.936 259.420,64.487 259.600,65.024 259.600 C 65.561 259.600,66.000 259.749,66.000 259.932 C 66.000 260.114,67.035 260.304,68.300 260.354 C 69.565 260.404,70.660 260.615,70.733 260.822 C 70.807 261.030,71.752 261.200,72.833 261.200 C 73.915 261.200,74.800 261.368,74.800 261.574 C 74.800 261.961,82.579 262.313,97.500 262.604 C 102.791 262.707,106.000 262.624,106.000 262.385 C 106.000 262.173,106.810 262.000,107.800 262.000 C 108.790 262.000,109.600 261.820,109.600 261.600 C 109.600 261.380,110.100 261.200,110.712 261.200 C 111.365 261.200,112.061 260.870,112.400 260.400 C 112.775 259.880,113.435 259.600,114.288 259.600 C 115.010 259.600,115.600 259.420,115.600 259.200 C 115.600 258.980,116.035 258.800,116.567 258.800 C 117.098 258.800,117.593 258.637,117.667 258.437 C 117.740 258.237,118.430 258.022,119.200 257.959 C 119.970 257.896,121.020 257.475,121.532 257.022 C 122.045 256.570,122.542 256.248,122.636 256.306 C 122.834 256.429,124.893 255.165,125.214 254.725 C 125.332 254.563,126.104 254.149,126.930 253.803 C 127.756 253.458,128.322 252.997,128.186 252.778 C 128.051 252.559,128.089 252.422,128.270 252.472 C 128.593 252.563,130.898 251.444,131.762 250.778 C 132.003 250.592,132.942 249.801,133.848 249.020 C 134.755 248.239,135.700 247.600,135.948 247.600 C 136.197 247.600,136.400 247.414,136.400 247.187 C 136.400 246.961,136.715 246.656,137.100 246.510 C 138.045 246.152,138.819 245.352,138.514 245.048 C 138.378 244.911,138.567 244.800,138.933 244.800 C 139.300 244.800,139.600 244.657,139.600 244.481 C 139.600 244.086,140.678 242.614,142.000 241.205 C 142.550 240.618,143.045 240.017,143.100 239.869 C 143.155 239.721,143.282 239.645,143.383 239.700 C 143.905 239.986,144.673 238.052,144.753 236.251 C 144.803 235.123,145.014 234.140,145.222 234.067 C 146.960 233.453,145.050 232.285,141.200 231.605 C 135.686 230.632,132.456 229.779,130.316 228.728 C 129.500 228.328,128.420 228.000,127.916 228.000 L 127.000 228.000 127.108 210.900 C 127.167 201.495,127.164 189.390,127.100 184.000 C 127.037 178.610,126.943 186.213,126.893 200.896 M369.549 176.500 C 369.852 176.886,370.570 177.176,371.149 177.146 L 372.200 177.091 371.200 176.907 C 370.650 176.806,369.930 176.516,369.600 176.262 C 369.078 175.860,369.071 175.891,369.549 176.500 M248.217 206.373 C 248.094 206.571,247.887 207.604,247.757 208.667 C 247.627 209.730,247.178 211.552,246.760 212.715 C 246.342 213.878,246.000 215.249,246.000 215.761 C 246.000 218.750,239.559 228.889,236.333 230.977 C 233.789 232.624,233.449 233.200,235.018 233.200 C 236.051 233.200,238.000 234.783,238.000 235.621 C 238.000 236.340,240.150 238.166,241.956 238.980 C 242.860 239.388,243.600 239.874,243.600 240.061 C 243.600 240.247,243.840 240.400,244.132 240.400 C 244.425 240.400,244.906 240.850,245.200 241.400 C 245.505 241.970,246.093 242.403,246.568 242.406 C 247.252 242.411,247.293 242.481,246.800 242.800 C 246.304 243.120,246.341 243.189,247.012 243.194 C 247.458 243.197,248.083 243.560,248.400 244.000 C 248.717 244.440,249.225 244.800,249.528 244.800 C 249.831 244.800,250.583 245.340,251.200 246.000 C 251.817 246.660,252.609 247.200,252.960 247.200 C 253.312 247.200,253.600 247.380,253.600 247.600 C 253.600 247.820,253.960 248.000,254.400 248.000 C 254.840 248.000,255.200 248.180,255.200 248.400 C 255.200 248.620,255.434 248.800,255.720 248.800 C 256.697 248.800,258.401 249.799,258.629 250.506 C 258.755 250.894,259.010 251.117,259.197 251.002 C 259.383 250.887,259.807 251.064,260.139 251.396 C 260.471 251.728,261.026 252.000,261.371 252.000 C 261.717 252.000,262.000 252.141,262.000 252.313 C 262.000 252.485,262.809 252.864,263.797 253.156 C 264.785 253.448,265.491 253.853,265.365 254.057 C 265.238 254.263,265.584 254.346,266.145 254.244 C 266.729 254.138,267.352 254.301,267.626 254.631 C 267.885 254.944,268.349 255.200,268.655 255.200 C 269.587 255.200,272.400 256.175,272.400 256.497 C 272.400 256.664,272.861 256.800,273.424 256.800 C 273.987 256.800,274.343 256.969,274.215 257.176 C 274.087 257.382,274.302 257.565,274.691 257.582 C 276.904 257.675,279.168 258.129,278.975 258.440 C 278.853 258.638,279.653 258.800,280.753 258.800 C 281.853 258.800,282.864 258.980,283.000 259.200 C 283.141 259.429,285.196 259.600,287.800 259.600 C 290.304 259.600,292.459 259.771,292.588 259.980 C 292.723 260.198,295.892 260.361,300.000 260.361 C 304.108 260.361,307.277 260.198,307.412 259.980 C 307.543 259.768,310.202 259.600,313.424 259.600 C 317.008 259.600,319.200 259.448,319.200 259.200 C 319.200 258.980,320.111 258.800,321.224 258.800 C 322.667 258.800,323.164 258.666,322.958 258.332 C 322.765 258.020,322.884 257.947,323.314 258.112 C 323.669 258.248,324.510 258.084,325.184 257.748 C 325.858 257.412,326.631 257.210,326.901 257.300 C 327.172 257.391,327.622 257.236,327.901 256.956 C 328.181 256.676,328.767 256.517,329.205 256.601 C 329.642 256.685,330.000 256.623,330.000 256.462 C 330.000 256.302,330.405 256.122,330.900 256.064 C 333.231 255.789,335.173 255.236,336.146 254.570 C 336.556 254.290,337.171 254.167,337.512 254.298 C 337.919 254.455,338.032 254.376,337.842 254.068 C 337.671 253.791,337.808 253.580,338.176 253.550 C 338.519 253.523,338.935 253.463,339.100 253.417 C 341.286 252.815,342.070 252.510,343.895 251.550 C 345.070 250.932,345.923 250.601,345.792 250.813 C 345.378 251.483,346.077 251.233,346.753 250.470 C 347.109 250.068,347.985 249.484,348.700 249.172 C 349.415 248.860,350.000 248.469,350.000 248.302 C 350.000 248.136,350.349 248.000,350.776 248.000 C 351.203 248.000,351.664 247.820,351.800 247.600 C 351.936 247.380,352.407 247.200,352.847 247.200 C 353.287 247.200,353.536 247.020,353.400 246.800 C 353.264 246.580,353.496 246.400,353.914 246.400 C 354.333 246.400,355.002 246.040,355.400 245.600 C 355.798 245.160,356.444 244.800,356.835 244.800 C 357.226 244.800,357.660 244.440,357.800 244.000 C 357.940 243.560,358.402 243.200,358.827 243.200 C 359.252 243.200,359.600 243.020,359.600 242.800 C 359.600 242.580,359.830 242.400,360.111 242.400 C 360.392 242.400,360.937 242.032,361.322 241.583 C 361.707 241.134,362.197 240.874,362.411 241.007 C 362.625 241.139,362.800 240.939,362.800 240.562 C 362.800 240.185,363.499 239.211,364.354 238.398 C 365.208 237.585,366.108 236.545,366.354 236.086 C 366.917 235.034,366.958 225.345,366.400 225.000 C 366.180 224.864,366.000 224.481,366.000 224.148 C 366.000 223.421,364.997 222.336,364.648 222.686 C 364.511 222.822,364.400 222.717,364.400 222.452 C 364.400 221.672,360.798 218.400,359.940 218.400 C 359.507 218.400,359.264 218.220,359.400 218.000 C 359.536 217.780,359.277 217.600,358.824 217.600 C 358.371 217.600,358.000 217.420,358.000 217.200 C 358.000 216.319,348.917 216.709,348.684 217.600 C 348.532 218.183,348.138 218.400,347.237 218.400 C 346.557 218.400,346.000 218.536,346.000 218.702 C 346.000 219.093,343.888 220.028,342.824 220.108 C 342.371 220.142,342.000 220.312,342.000 220.485 C 342.000 220.658,341.640 220.800,341.200 220.800 C 340.760 220.800,340.400 220.980,340.400 221.200 C 340.400 221.420,340.040 221.600,339.600 221.600 C 339.160 221.600,338.800 221.780,338.800 222.000 C 338.800 222.220,338.455 222.400,338.033 222.400 C 337.612 222.400,337.207 222.578,337.133 222.797 C 337.060 223.015,336.505 223.234,335.900 223.284 C 335.295 223.334,334.800 223.471,334.800 223.590 C 334.800 223.929,329.643 225.803,327.800 226.134 C 327.360 226.213,326.490 226.487,325.866 226.742 C 325.243 226.997,324.568 227.104,324.366 226.979 C 324.165 226.855,324.000 227.012,324.000 227.330 C 324.000 227.647,323.640 228.001,323.199 228.116 C 322.759 228.231,322.500 228.162,322.623 227.963 C 322.969 227.403,322.540 227.527,321.110 228.399 C 320.389 228.838,319.305 229.198,318.700 229.199 C 318.095 229.199,317.600 229.380,317.600 229.600 C 317.600 229.820,316.895 230.000,316.033 230.000 C 315.172 230.000,314.407 230.171,314.333 230.380 C 314.260 230.589,312.535 230.792,310.500 230.832 C 308.465 230.872,306.800 231.070,306.800 231.271 C 306.800 231.486,304.112 231.554,300.300 231.436 C 291.504 231.163,287.200 230.813,287.200 230.370 C 287.200 230.166,286.795 229.997,286.300 229.994 C 284.939 229.985,282.190 228.943,282.844 228.684 C 283.150 228.562,282.714 228.449,281.876 228.432 C 280.969 228.413,280.453 228.238,280.600 228.000 C 280.739 227.776,280.425 227.600,279.885 227.600 C 279.356 227.600,278.390 227.334,277.739 227.009 C 277.088 226.684,276.177 226.361,275.716 226.291 C 275.255 226.220,274.619 225.948,274.302 225.685 C 273.986 225.422,273.608 225.325,273.463 225.470 C 273.318 225.615,273.200 225.504,273.200 225.224 C 273.200 224.944,272.952 224.810,272.649 224.926 C 272.346 225.042,271.898 224.938,271.654 224.694 C 271.410 224.450,270.803 224.189,270.305 224.114 C 269.807 224.039,269.340 223.802,269.267 223.588 C 269.193 223.375,268.788 223.200,268.367 223.200 C 267.945 223.200,267.600 223.050,267.600 222.868 C 267.600 222.685,267.105 222.281,266.500 221.970 C 265.895 221.660,265.109 221.089,264.753 220.703 C 264.397 220.316,263.893 220.000,263.631 220.000 C 263.370 220.000,262.581 219.461,261.878 218.802 C 261.175 218.143,260.447 217.603,260.260 217.602 C 260.074 217.601,259.417 217.060,258.800 216.400 C 258.183 215.740,257.361 215.200,256.973 215.200 C 256.584 215.200,256.378 215.089,256.514 214.952 C 256.847 214.620,255.985 213.798,254.346 212.886 C 253.606 212.473,252.945 211.764,252.878 211.309 C 252.810 210.854,252.405 210.390,251.978 210.278 C 251.550 210.166,251.200 209.782,251.200 209.424 C 251.200 208.616,248.523 205.878,248.217 206.373 M198.900 227.094 C 199.945 227.176,201.655 227.176,202.700 227.094 C 203.745 227.012,202.890 226.944,200.800 226.944 C 198.710 226.944,197.855 227.012,198.900 227.094 " stroke="none" fill="#b4b4b4" fill-rule="evenodd"></path><path id="path1" d="M154.900 140.198 C 154.220 140.970,154.271 141.200,155.120 141.200 C 155.862 141.200,156.800 140.485,156.800 139.920 C 156.800 139.390,155.436 139.590,154.900 140.198 M182.300 142.682 C 182.795 142.778,183.200 143.034,183.200 143.251 C 183.200 143.469,183.399 143.524,183.643 143.374 C 184.236 143.007,183.271 142.396,182.200 142.461 C 181.510 142.502,181.524 142.533,182.300 142.682 M186.975 146.041 C 186.841 146.258,186.932 146.677,187.178 146.973 C 187.757 147.671,189.601 148.030,189.597 147.445 C 189.594 146.801,187.272 145.559,186.975 146.041 M141.400 147.600 C 140.969 148.297,141.608 148.892,142.231 148.374 C 142.539 148.118,142.693 147.750,142.572 147.555 C 142.280 147.083,141.706 147.105,141.400 147.600 M190.813 149.836 C 190.805 150.351,191.191 150.850,191.819 151.136 C 193.128 151.732,193.200 151.724,193.200 150.967 C 193.200 150.618,192.979 150.407,192.708 150.497 C 192.437 150.588,191.903 150.288,191.521 149.831 L 190.827 149.000 190.813 149.836 M162.900 157.494 C 163.945 157.576,165.655 157.576,166.700 157.494 C 167.745 157.412,166.890 157.344,164.800 157.344 C 162.710 157.344,161.855 157.412,162.900 157.494 M174.522 159.333 C 174.675 159.736,174.805 160.366,174.812 160.733 C 174.823 161.332,174.866 161.328,175.235 160.694 C 175.545 160.161,175.475 159.819,174.945 159.294 C 174.280 158.635,174.259 158.637,174.522 159.333 M198.800 160.001 C 198.800 160.746,199.948 161.669,200.696 161.525 C 201.246 161.419,201.120 161.198,200.096 160.468 C 199.383 159.961,198.800 159.751,198.800 160.001 M131.893 160.800 C 131.245 161.557,131.246 161.600,131.924 161.600 C 132.663 161.600,133.600 160.884,133.600 160.320 C 133.600 159.714,132.576 160.002,131.893 160.800 M179.200 164.234 C 179.200 165.063,180.626 166.205,180.969 165.650 C 181.083 165.466,180.731 164.899,180.188 164.388 C 179.264 163.521,179.200 163.511,179.200 164.234 M129.764 164.956 C 129.447 165.300,129.469 165.562,129.843 165.911 C 130.460 166.487,130.798 166.059,130.450 165.142 C 130.260 164.641,130.095 164.597,129.764 164.956 M149.470 165.761 C 149.246 166.345,149.502 166.800,150.054 166.800 C 150.231 166.800,150.271 166.528,150.143 166.195 C 149.977 165.763,150.094 165.661,150.555 165.838 C 150.910 165.974,151.200 165.886,151.200 165.643 C 151.200 164.999,149.724 165.099,149.470 165.761 M128.400 171.198 C 128.400 171.433,128.670 171.729,129.000 171.855 C 129.330 171.982,129.600 172.318,129.600 172.603 C 129.600 175.421,137.568 178.805,141.600 177.699 C 142.787 177.374,142.482 177.315,139.600 177.311 C 134.885 177.306,130.000 174.665,130.000 172.123 C 130.000 171.851,129.640 171.435,129.200 171.200 C 128.634 170.897,128.400 170.897,128.400 171.198 M148.285 172.057 C 147.976 172.796,147.020 174.104,146.161 174.965 C 145.217 175.911,144.949 176.344,145.484 176.059 C 146.843 175.336,149.561 171.428,149.056 170.923 C 148.941 170.808,148.594 171.318,148.285 172.057 M206.400 176.767 C 206.400 177.005,206.572 177.200,206.782 177.200 C 206.992 177.200,207.231 178.415,207.313 179.900 L 207.463 182.600 207.431 179.632 C 207.410 177.636,207.236 176.610,206.900 176.499 C 206.625 176.408,206.400 176.528,206.400 176.767 M91.119 177.098 C 92.944 177.172,95.824 177.172,97.519 177.097 C 99.214 177.022,97.720 176.961,94.200 176.962 C 90.680 176.962,89.294 177.024,91.119 177.098 M79.027 181.453 C 77.409 183.071,77.433 183.779,79.065 182.561 C 79.947 181.902,81.107 180.000,80.627 180.000 C 80.546 180.000,79.826 180.654,79.027 181.453 M207.894 183.439 C 207.574 183.760,207.993 184.800,208.443 184.800 C 208.639 184.800,208.800 184.440,208.800 184.000 C 208.800 183.220,208.376 182.958,207.894 183.439 M112.576 186.188 C 111.997 189.272,109.351 190.540,106.462 189.117 C 100.630 186.244,87.213 189.104,80.180 194.720 C 74.393 199.341,67.650 209.600,70.400 209.600 C 70.623 209.600,70.800 210.675,70.800 212.024 C 70.800 213.357,70.944 214.358,71.120 214.249 C 71.296 214.141,71.669 214.419,71.949 214.868 C 72.368 215.538,72.365 215.627,71.930 215.365 C 71.563 215.144,71.585 215.285,72.000 215.822 C 73.010 217.127,73.492 217.567,74.041 217.686 C 74.331 217.749,75.575 218.790,76.806 220.000 C 79.829 222.971,81.660 224.384,82.500 224.393 C 82.885 224.397,83.200 224.580,83.200 224.800 C 83.200 225.020,83.729 225.200,84.376 225.200 C 85.023 225.200,85.664 225.380,85.800 225.600 C 85.936 225.820,86.667 226.000,87.424 226.000 C 88.181 226.000,88.800 226.180,88.800 226.400 C 88.800 226.650,91.208 226.800,95.224 226.800 C 99.404 226.800,101.561 226.660,101.400 226.400 C 101.260 226.173,101.596 226.000,102.176 226.000 C 102.739 226.000,103.200 225.820,103.200 225.600 C 103.200 225.380,103.540 225.200,103.955 225.200 C 104.370 225.200,105.129 224.673,105.642 224.030 C 106.154 223.386,106.727 222.955,106.914 223.071 C 107.102 223.187,107.558 222.988,107.928 222.630 C 108.297 222.271,109.084 221.552,109.675 221.031 C 110.267 220.510,110.642 219.975,110.509 219.842 C 110.376 219.709,110.477 219.578,110.733 219.550 C 110.990 219.523,111.405 219.478,111.656 219.450 C 111.907 219.423,112.312 219.045,112.556 218.612 C 112.800 218.179,113.495 217.342,114.100 216.752 C 114.705 216.162,115.200 215.391,115.200 215.040 C 115.200 214.688,115.362 214.445,115.560 214.500 C 115.758 214.555,115.949 214.420,115.984 214.200 C 116.020 213.980,116.361 213.440,116.742 213.000 C 118.725 210.715,118.965 209.398,119.074 200.226 C 119.163 192.703,119.124 192.222,118.384 191.704 C 117.953 191.402,117.600 190.805,117.600 190.377 C 117.600 189.950,117.409 189.600,117.176 189.600 C 116.943 189.600,116.860 189.426,116.991 189.214 C 117.243 188.807,114.170 185.600,113.528 185.600 C 113.322 185.600,113.264 185.420,113.400 185.200 C 113.536 184.980,113.465 184.800,113.242 184.800 C 113.019 184.800,112.719 185.424,112.576 186.188 M188.800 192.800 C 188.800 193.460,188.980 194.000,189.200 194.000 C 189.420 194.000,189.600 193.460,189.600 192.800 C 189.600 192.140,189.420 191.600,189.200 191.600 C 188.980 191.600,188.800 192.140,188.800 192.800 M188.800 209.800 C 188.800 210.570,188.980 211.200,189.200 211.200 C 189.420 211.200,189.600 210.570,189.600 209.800 C 189.600 209.030,189.420 208.400,189.200 208.400 C 188.980 208.400,188.800 209.030,188.800 209.800 M188.800 214.200 C 188.800 214.750,188.980 215.200,189.200 215.200 C 189.420 215.200,189.600 214.750,189.600 214.200 C 189.600 213.650,189.420 213.200,189.200 213.200 C 188.980 213.200,188.800 213.650,188.800 214.200 M192.000 219.424 C 192.000 219.767,192.165 219.945,192.366 219.821 C 192.567 219.697,192.812 219.821,192.911 220.098 C 193.010 220.374,193.231 220.469,193.402 220.310 C 193.744 219.991,192.914 218.800,192.351 218.800 C 192.158 218.800,192.000 219.081,192.000 219.424 M204.000 221.033 C 204.000 221.382,204.214 221.595,204.475 221.508 C 205.217 221.261,205.340 220.400,204.633 220.400 C 204.285 220.400,204.000 220.685,204.000 221.033 M201.300 221.798 C 200.643 222.544,200.669 222.800,201.400 222.800 C 201.730 222.800,202.000 222.601,202.000 222.357 C 202.000 222.114,202.270 222.018,202.600 222.145 C 202.965 222.285,203.200 222.145,203.200 221.787 C 203.200 221.043,201.959 221.050,201.300 221.798 M198.500 223.076 C 198.885 223.176,199.515 223.176,199.900 223.076 C 200.285 222.975,199.970 222.893,199.200 222.893 C 198.430 222.893,198.115 222.975,198.500 223.076 " stroke="none" fill="#dcdcdc" fill-rule="evenodd"></path><path id="path2" d="M289.200 163.262 C 288.430 163.447,285.821 163.613,283.402 163.632 C 280.983 163.650,278.815 163.821,278.585 164.012 C 278.355 164.203,276.599 164.405,274.683 164.460 C 272.768 164.515,271.200 164.704,271.200 164.880 C 271.200 165.056,269.400 165.200,267.200 165.200 C 265.000 165.200,263.200 165.363,263.200 165.563 C 263.200 165.929,261.265 166.196,255.400 166.639 C 253.640 166.772,252.140 167.042,252.067 167.240 C 251.993 167.438,251.333 167.600,250.600 167.600 C 249.866 167.600,248.426 167.960,247.400 168.400 C 246.374 168.840,244.728 169.200,243.743 169.200 C 242.651 169.200,242.049 169.356,242.200 169.600 C 242.351 169.844,241.737 170.000,240.624 170.000 C 239.621 170.000,238.800 170.180,238.800 170.400 C 238.800 170.659,233.808 170.800,224.624 170.800 C 216.827 170.800,210.373 170.935,210.283 171.100 C 209.938 171.732,210.714 177.300,211.188 177.592 C 211.505 177.789,211.593 178.320,211.430 179.061 C 211.241 179.922,211.386 180.449,211.988 181.095 C 212.779 181.944,212.800 182.428,212.800 200.023 L 212.800 218.079 211.580 219.218 C 210.909 219.845,210.369 220.457,210.380 220.579 C 210.544 222.418,208.740 224.800,207.183 224.800 C 206.690 224.800,205.762 225.349,205.121 226.020 C 203.775 227.428,196.726 227.828,196.226 226.524 C 196.105 226.208,195.837 226.054,195.630 226.181 C 195.424 226.309,195.142 226.230,195.004 226.007 C 194.866 225.783,194.403 225.600,193.976 225.600 C 193.549 225.600,193.200 225.420,193.200 225.200 C 193.200 224.980,192.840 224.800,192.400 224.800 C 191.960 224.800,191.597 224.575,191.594 224.300 C 191.589 223.913,191.518 223.909,191.279 224.285 C 191.065 224.623,190.623 224.353,189.827 223.398 C 189.197 222.643,188.484 222.139,188.241 222.277 C 187.999 222.415,187.926 222.388,188.081 222.217 C 188.235 222.045,188.100 221.643,187.781 221.324 C 187.461 221.004,187.200 220.396,187.200 219.971 C 187.200 219.495,186.924 219.200,186.480 219.200 C 184.827 219.200,184.800 218.918,184.800 201.608 C 184.800 185.435,184.778 184.961,184.000 184.400 C 183.349 183.931,183.200 183.365,183.200 181.357 C 183.200 179.095,183.101 178.812,182.004 177.945 C 181.058 177.198,180.806 176.686,180.804 175.500 C 180.802 174.675,180.609 174.000,180.376 174.000 C 180.143 174.000,180.053 173.838,180.175 173.641 C 180.297 173.443,179.875 172.723,179.238 172.041 L 178.079 170.800 163.883 170.800 L 149.687 170.800 149.064 172.358 C 148.385 174.054,146.777 176.000,146.054 176.000 C 145.804 176.000,145.600 176.180,145.600 176.400 C 145.600 176.620,145.240 176.800,144.800 176.800 C 144.360 176.800,144.000 176.941,144.000 177.113 C 144.000 177.285,143.197 177.662,142.215 177.952 C 137.897 179.227,131.951 177.196,129.919 173.752 C 129.068 172.311,127.850 171.972,127.432 173.061 C 127.292 173.425,127.138 185.935,127.089 200.861 L 127.000 228.000 127.920 228.000 C 128.426 228.000,129.357 228.267,129.989 228.594 C 132.150 229.712,134.395 230.309,141.954 231.775 C 143.579 232.090,145.100 232.540,145.334 232.774 C 145.873 233.313,148.000 233.334,148.000 232.800 C 148.000 232.536,162.623 232.400,191.068 232.400 L 234.136 232.400 236.401 230.933 C 239.562 228.887,246.000 218.711,246.000 215.761 C 246.000 215.249,246.342 213.878,246.760 212.715 C 247.178 211.552,247.630 209.707,247.764 208.616 C 247.898 207.525,248.186 206.454,248.404 206.236 C 248.622 206.018,248.800 204.352,248.800 202.534 C 248.800 199.682,248.906 199.172,249.569 198.817 C 249.992 198.590,250.577 198.171,250.869 197.886 C 251.512 197.256,254.066 196.167,254.542 196.319 C 254.730 196.379,255.096 196.253,255.354 196.038 C 255.612 195.824,256.988 195.609,258.412 195.562 C 259.835 195.514,261.094 195.334,261.209 195.162 C 261.323 194.989,262.531 194.808,263.892 194.759 C 265.253 194.710,266.274 194.519,266.160 194.335 C 265.995 194.069,270.855 193.756,272.100 193.953 C 272.265 193.979,272.400 193.820,272.400 193.600 C 272.400 193.363,273.859 193.200,275.976 193.200 C 278.159 193.200,279.659 193.027,279.826 192.757 C 280.017 192.449,280.204 192.479,280.444 192.857 C 280.697 193.257,280.789 193.268,280.794 192.900 C 280.798 192.532,281.905 192.400,284.976 192.400 C 287.329 192.400,289.261 192.225,289.400 192.000 C 289.536 191.780,290.526 191.600,291.600 191.600 C 292.674 191.600,293.664 191.780,293.800 192.000 C 293.940 192.227,295.926 192.400,298.390 192.400 C 301.490 192.400,302.791 192.543,302.936 192.900 C 303.089 193.278,303.252 193.253,303.600 192.800 C 303.948 192.347,304.111 192.322,304.264 192.700 C 304.409 193.057,305.710 193.200,308.810 193.200 C 311.274 193.200,313.260 193.373,313.400 193.600 C 313.536 193.820,314.267 194.000,315.024 194.000 C 315.781 194.000,316.400 194.180,316.400 194.400 C 316.400 194.631,317.659 194.800,319.376 194.800 C 321.013 194.800,322.464 194.980,322.600 195.200 C 322.736 195.420,323.791 195.600,324.944 195.600 C 326.097 195.600,327.211 195.770,327.420 195.977 C 327.629 196.184,328.835 196.395,330.100 196.445 C 331.365 196.496,332.400 196.686,332.400 196.868 C 332.400 197.051,333.379 197.200,334.576 197.200 C 335.773 197.200,336.864 197.380,337.000 197.600 C 337.136 197.820,338.137 198.000,339.224 198.000 C 340.311 198.000,341.200 198.180,341.200 198.400 C 341.200 198.620,342.100 198.800,343.200 198.800 C 344.530 198.800,345.202 198.967,345.206 199.300 C 345.210 199.633,345.342 199.600,345.600 199.200 C 345.858 198.800,345.990 198.767,345.994 199.100 C 345.997 199.380,346.494 199.600,347.120 199.600 C 348.336 199.600,350.392 200.416,350.397 200.900 C 350.399 201.065,351.390 201.200,352.600 201.200 C 353.810 201.200,354.800 201.341,354.800 201.513 C 354.800 201.685,355.277 201.865,355.860 201.913 C 356.442 201.961,357.126 202.173,357.379 202.382 C 357.632 202.592,358.505 202.809,359.319 202.864 C 360.134 202.919,360.800 203.107,360.800 203.282 C 360.800 203.457,361.509 203.600,362.376 203.600 C 363.243 203.600,364.066 203.783,364.205 204.008 C 364.755 204.899,372.407 204.317,373.187 203.325 C 373.576 202.831,374.008 202.541,374.147 202.680 C 374.286 202.819,374.400 202.735,374.400 202.494 C 374.400 202.252,374.760 201.940,375.200 201.800 C 375.640 201.660,376.000 201.278,376.000 200.949 C 376.000 200.621,376.180 200.464,376.400 200.600 C 376.620 200.736,376.800 200.594,376.800 200.286 C 376.800 199.977,377.160 199.398,377.600 199.000 C 378.040 198.602,378.400 198.116,378.400 197.921 C 378.400 197.726,378.760 197.180,379.200 196.708 C 380.095 195.747,380.448 184.724,379.600 184.200 C 379.380 184.064,379.200 183.623,379.200 183.219 C 379.200 182.816,378.930 182.382,378.600 182.255 C 378.270 182.129,378.000 181.749,378.000 181.413 C 378.000 181.076,377.860 180.800,377.689 180.800 C 377.518 180.800,376.784 180.257,376.058 179.594 C 374.293 177.982,372.406 177.021,371.268 177.156 C 370.755 177.216,369.971 176.936,369.526 176.533 C 369.080 176.130,368.690 175.860,368.658 175.933 C 368.626 176.006,368.106 175.942,367.503 175.790 C 366.899 175.639,366.505 175.354,366.626 175.157 C 366.748 174.961,366.207 174.800,365.424 174.800 C 364.641 174.800,364.000 174.620,364.000 174.400 C 364.000 174.180,363.586 174.000,363.080 174.000 C 362.574 174.000,361.989 173.830,361.780 173.621 C 361.571 173.413,360.635 173.198,359.700 173.143 C 358.765 173.088,358.000 172.918,358.000 172.766 C 358.000 172.496,356.982 172.286,353.200 171.775 C 352.210 171.641,351.340 171.367,351.267 171.166 C 351.193 170.965,350.349 170.800,349.390 170.800 C 348.432 170.800,347.536 170.620,347.400 170.400 C 347.264 170.180,346.083 170.000,344.776 170.000 C 343.459 170.000,342.400 169.822,342.400 169.600 C 342.400 169.380,341.680 169.200,340.800 169.200 C 339.920 169.200,339.200 169.036,339.200 168.835 C 339.200 168.635,338.885 168.518,338.500 168.576 C 338.115 168.634,337.260 168.516,336.600 168.314 C 335.940 168.112,334.860 167.852,334.200 167.736 C 333.540 167.620,332.820 167.383,332.600 167.209 C 332.380 167.035,330.580 166.785,328.600 166.653 C 324.143 166.357,322.036 166.059,321.000 165.581 C 320.560 165.377,317.410 165.140,314.000 165.052 C 307.355 164.883,303.245 164.504,302.600 164.001 C 302.380 163.830,300.638 163.687,298.728 163.685 C 296.819 163.682,294.479 163.551,293.528 163.393 C 292.578 163.235,291.530 163.065,291.200 163.016 C 290.870 162.966,289.970 163.077,289.200 163.262 M184.283 208.495 C 184.187 208.993,184.105 208.680,184.101 207.800 C 184.096 206.920,184.175 206.513,184.275 206.895 C 184.375 207.278,184.379 207.998,184.283 208.495 " stroke="none" fill="#c4c4c4" fill-rule="evenodd"></path><path id="path3" d="M156.800 139.520 C 156.800 140.750,155.927 141.200,153.543 141.200 C 151.652 141.200,151.140 141.351,150.649 142.052 C 150.239 142.637,149.757 142.847,149.105 142.722 C 148.172 142.544,147.017 143.284,147.491 143.757 C 147.624 143.891,147.510 144.000,147.238 144.000 C 146.966 144.000,146.471 144.272,146.139 144.604 C 145.807 144.936,145.342 145.088,145.106 144.942 C 144.851 144.785,144.793 144.864,144.962 145.138 C 145.131 145.412,144.993 145.600,144.624 145.600 C 144.281 145.600,144.000 145.780,144.000 146.000 C 144.000 146.220,143.650 146.400,143.223 146.400 C 142.664 146.400,142.489 146.622,142.598 147.192 C 142.748 147.967,142.276 148.505,141.320 148.650 C 140.626 148.756,138.800 150.671,138.800 151.294 C 138.800 151.585,138.440 152.083,138.000 152.400 C 137.560 152.717,137.200 153.220,137.200 153.517 C 137.200 154.249,136.200 155.200,135.429 155.200 C 135.083 155.200,134.800 155.494,134.800 155.853 C 134.800 156.212,134.416 156.839,133.947 157.246 C 133.274 157.830,133.141 158.279,133.317 159.368 C 133.575 160.953,132.874 161.817,131.602 161.485 C 130.901 161.301,130.791 161.485,130.732 162.937 C 130.617 165.717,130.586 165.947,130.288 166.245 C 130.130 166.404,130.000 166.323,130.000 166.067 C 130.000 165.810,129.845 165.600,129.655 165.600 C 129.465 165.600,129.360 166.053,129.420 166.606 C 129.481 167.159,129.276 167.866,128.965 168.177 C 128.131 169.012,128.262 170.698,129.200 171.200 C 129.640 171.435,130.000 171.851,130.000 172.123 C 130.000 173.106,132.418 175.521,134.288 176.404 C 139.543 178.887,146.166 176.844,148.242 172.100 C 148.555 171.385,149.024 170.800,149.285 170.800 C 149.649 170.800,149.647 170.687,149.280 170.320 C 148.693 169.733,148.646 167.742,149.211 167.393 C 149.436 167.254,149.595 166.928,149.563 166.670 C 149.429 165.581,149.646 165.200,150.400 165.200 C 150.904 165.200,151.200 164.933,151.200 164.478 C 151.200 163.575,153.604 161.200,154.519 161.200 C 154.894 161.200,155.200 160.917,155.200 160.571 C 155.200 159.405,156.281 158.800,158.368 158.800 C 159.960 158.800,160.500 158.629,160.893 158.000 C 161.329 157.302,161.826 157.200,164.800 157.200 C 167.774 157.200,168.271 157.302,168.707 158.000 C 169.115 158.653,169.640 158.800,171.570 158.800 C 173.086 158.800,174.006 158.979,174.135 159.300 C 174.289 159.681,174.344 159.675,174.368 159.271 C 174.393 158.861,174.534 158.877,174.999 159.342 C 175.328 159.671,175.489 160.224,175.356 160.570 C 175.196 160.988,175.339 161.200,175.781 161.200 C 176.147 161.200,176.346 161.364,176.221 161.565 C 176.097 161.766,176.536 162.170,177.198 162.463 C 177.859 162.756,178.400 163.131,178.400 163.298 C 178.400 163.464,178.642 163.600,178.938 163.600 C 179.756 163.600,181.016 165.189,180.875 166.043 C 180.795 166.528,180.985 166.800,181.403 166.800 C 182.448 166.800,183.200 167.836,183.200 169.275 C 183.200 170.174,183.460 170.770,184.000 171.107 C 184.576 171.467,184.800 172.040,184.800 173.153 C 184.800 174.552,184.915 174.723,186.000 174.940 C 187.192 175.178,187.200 175.198,187.200 177.902 C 187.200 180.165,187.335 180.721,188.000 181.200 C 188.725 181.723,188.800 182.235,188.800 186.688 C 188.800 189.696,188.955 191.600,189.200 191.600 C 189.456 191.600,189.600 195.133,189.600 201.400 C 189.600 207.667,189.456 211.200,189.200 211.200 C 188.980 211.200,188.800 211.650,188.800 212.200 C 188.800 212.750,188.980 213.200,189.200 213.200 C 189.420 213.200,189.600 213.584,189.600 214.053 C 189.600 214.522,189.933 215.197,190.340 215.553 C 190.746 215.909,191.201 216.854,191.349 217.654 C 191.540 218.680,191.818 219.092,192.294 219.054 C 192.674 219.024,193.238 219.524,193.585 220.200 C 193.969 220.950,194.575 221.453,195.200 221.541 C 195.750 221.619,196.310 221.859,196.445 222.075 C 196.579 222.292,196.849 222.498,197.045 222.534 C 197.240 222.570,197.370 222.690,197.334 222.800 C 197.298 222.910,198.378 223.012,199.734 223.027 C 201.090 223.041,201.885 222.983,201.500 222.897 C 200.651 222.708,200.629 222.514,201.371 221.771 C 202.153 220.990,203.107 221.053,203.307 221.900 C 203.430 222.423,203.550 222.322,203.779 221.500 C 203.948 220.895,204.310 220.400,204.582 220.400 C 204.855 220.400,205.488 220.044,205.990 219.608 C 206.492 219.173,207.058 218.912,207.247 219.029 C 207.436 219.146,207.479 218.951,207.343 218.595 C 207.187 218.189,207.412 217.727,207.947 217.352 C 209.088 216.553,209.312 185.655,208.186 184.529 C 207.716 184.059,207.680 183.786,208.031 183.362 C 208.386 182.935,208.344 182.753,207.845 182.562 C 207.346 182.370,207.200 181.743,207.200 179.791 C 207.200 178.163,207.023 177.184,206.700 177.033 C 206.305 176.849,206.308 176.750,206.717 176.561 C 207.088 176.389,206.947 176.057,206.217 175.380 C 205.341 174.569,205.200 174.098,205.200 171.991 C 205.200 169.707,204.511 168.023,203.848 168.686 C 203.711 168.822,203.600 168.543,203.600 168.067 C 203.600 167.587,203.377 167.245,203.100 167.300 C 202.788 167.362,202.649 167.052,202.730 166.473 C 202.809 165.909,202.534 165.263,202.030 164.826 C 201.520 164.384,201.200 163.623,201.200 162.853 C 201.200 161.981,201.009 161.600,200.571 161.600 C 199.549 161.600,198.800 160.551,198.800 159.117 C 198.800 158.235,198.526 157.579,198.000 157.200 C 197.560 156.883,197.200 156.303,197.200 155.912 C 197.200 155.520,196.917 155.200,196.571 155.200 C 195.827 155.200,194.800 154.258,194.800 153.575 C 194.800 152.937,193.466 151.807,191.990 151.196 C 191.142 150.844,190.800 150.430,190.800 149.751 C 190.800 149.228,190.609 148.800,190.376 148.800 C 190.143 148.800,190.055 148.635,190.180 148.433 C 190.305 148.230,189.820 147.940,189.103 147.786 C 187.260 147.392,186.764 146.884,187.062 145.695 C 187.232 145.017,187.173 144.769,186.884 144.948 C 186.646 145.095,185.982 144.746,185.408 144.172 C 184.826 143.590,184.107 143.227,183.782 143.351 C 183.462 143.474,183.200 143.401,183.200 143.187 C 183.200 142.974,182.883 142.800,182.496 142.800 C 182.109 142.800,181.568 142.440,181.293 142.000 C 180.890 141.356,180.360 141.200,178.568 141.200 C 176.278 141.200,175.200 140.633,175.200 139.429 C 175.200 138.875,174.097 138.800,166.000 138.800 C 157.407 138.800,156.800 138.848,156.800 139.520 M85.152 177.200 C 85.126 177.310,85.118 177.508,85.133 177.641 C 85.148 177.773,84.719 177.797,84.180 177.694 C 83.447 177.554,83.200 177.680,83.200 178.196 C 83.200 178.637,82.989 178.805,82.615 178.661 C 82.277 178.531,81.708 178.845,81.268 179.405 C 80.849 179.937,80.405 180.271,80.280 180.147 C 80.156 180.023,80.147 180.274,80.259 180.706 C 80.479 181.545,78.792 183.200,77.717 183.200 C 77.014 183.200,75.944 184.211,76.286 184.552 C 76.422 184.689,76.143 184.800,75.667 184.800 C 75.103 184.800,74.800 185.048,74.800 185.512 C 74.800 185.903,74.440 186.483,74.000 186.800 C 73.560 187.117,73.200 187.617,73.200 187.912 C 73.200 188.206,73.020 188.336,72.800 188.200 C 72.580 188.064,72.400 188.259,72.400 188.633 C 72.400 189.007,71.860 189.829,71.200 190.460 C 70.480 191.148,70.000 192.015,70.000 192.627 C 70.000 193.229,69.830 193.542,69.586 193.391 C 69.305 193.218,69.186 195.659,69.217 200.968 C 69.242 205.275,69.383 208.792,69.531 208.782 C 69.679 208.772,70.651 207.017,71.691 204.882 C 74.280 199.569,79.160 194.632,84.768 191.654 C 90.895 188.399,102.297 187.066,106.462 189.117 C 111.199 191.451,115.612 184.468,110.970 181.984 C 110.451 181.706,110.122 181.327,110.237 181.140 C 110.353 180.953,110.143 180.800,109.771 180.800 C 109.398 180.800,108.758 180.412,108.347 179.939 C 107.936 179.465,107.600 179.199,107.600 179.348 C 107.600 179.497,107.195 179.372,106.700 179.071 C 106.205 178.771,104.990 178.481,104.000 178.428 C 103.010 178.375,102.140 178.166,102.066 177.963 C 101.992 177.761,101.767 177.697,101.566 177.821 C 101.365 177.945,101.200 177.812,101.200 177.524 C 101.199 177.008,85.273 176.687,85.152 177.200 M86.118 241.898 C 87.833 241.973,90.533 241.972,92.118 241.897 C 93.703 241.821,92.300 241.759,89.000 241.760 C 85.700 241.761,84.403 241.822,86.118 241.898 " stroke="none" fill="#e4e4e4" fill-rule="evenodd"></path><path id="path4" d="M191.481 149.761 C 191.877 150.289,192.257 150.667,192.328 150.600 C 192.538 150.399,191.434 148.800,191.085 148.800 C 190.908 148.800,191.086 149.232,191.481 149.761 M149.007 171.578 C 148.861 172.039,148.125 173.222,147.373 174.208 C 145.884 176.159,145.936 176.618,147.460 174.973 C 148.427 173.930,149.750 171.216,149.442 170.908 C 149.349 170.816,149.153 171.117,149.007 171.578 M129.955 173.910 C 130.594 175.112,133.986 177.580,135.000 177.581 C 135.506 177.582,135.212 177.315,134.200 176.854 C 133.320 176.453,131.896 175.422,131.035 174.563 C 130.032 173.561,129.644 173.327,129.955 173.910 M136.538 178.094 C 136.792 178.256,137.990 178.388,139.200 178.388 C 140.410 178.388,141.608 178.256,141.862 178.094 C 142.116 177.932,140.918 177.800,139.200 177.800 C 137.482 177.800,136.284 177.932,136.538 178.094 M184.101 207.800 C 184.105 208.680,184.187 208.993,184.283 208.495 C 184.379 207.998,184.375 207.278,184.275 206.895 C 184.175 206.513,184.096 206.920,184.101 207.800 M110.781 219.620 C 110.461 219.822,110.380 219.993,110.600 220.000 C 110.820 220.007,110.730 220.187,110.400 220.400 C 110.070 220.613,109.980 220.785,110.200 220.781 C 110.420 220.778,110.926 220.528,111.324 220.226 C 112.150 219.600,111.666 219.060,110.781 219.620 " stroke="none" fill="#cccccc" fill-rule="evenodd"></path></g></svg>